<?xml version="1.0" standalone="no"?>
<!DOCTYPE svg PUBLIC "-//W3C//DTD SVG 20010904//EN"
 "http://www.w3.org/TR/2001/REC-SVG-20010904/DTD/svg10.dtd">
<svg version="1.0" xmlns="http://www.w3.org/2000/svg"
 width="920.000000pt" height="671.000000pt" viewBox="0 0 920.000000 671.000000"
 preserveAspectRatio="xMidYMid meet">

<g transform="translate(0.000000,671.000000) scale(0.100000,-0.100000)"
fill="#000000" stroke="none">
<path d="M4038 5633 c12 -2 30 -2 40 0 9 3 -1 5 -23 4 -22 0 -30 -2 -17 -4z"/>
<path d="M3973 5623 c9 -2 23 -2 30 0 6 3 -1 5 -18 5 -16 0 -22 -2 -12 -5z"/>
<path d="M3870 5592 c-204 -88 -363 -258 -376 -405 l-3 -42 9 42 c13 63 56
146 106 208 54 66 133 121 258 181 102 49 106 58 6 16z"/>
<path d="M4018 5604 c-117 -28 -261 -114 -339 -202 -81 -91 -132 -251 -111
-348 8 -34 9 -27 10 46 2 144 46 238 162 342 61 55 190 126 271 149 24 6 85
15 134 19 l90 7 -80 1 c-44 0 -106 -6 -137 -14z"/>
<path d="M4053 5585 c-81 -18 -215 -81 -280 -134 -124 -98 -176 -201 -178
-351 l-1 -95 -40 3 c-21 2 -43 8 -48 13 -6 5 -10 34 -10 64 -1 30 -5 55 -10
55 -4 0 -6 -26 -3 -57 17 -168 25 -221 32 -234 41 -70 136 -183 189 -224 60
-47 63 -52 58 -85 -7 -49 -46 -88 -91 -92 -32 -3 -36 -6 -36 -30 1 -15 -4 -26
-9 -25 -5 1 -19 -12 -30 -30 -12 -18 -27 -32 -34 -33 -29 0 -69 -56 -81 -110
-11 -53 -45 -120 -60 -120 -15 0 -94 -68 -107 -92 -7 -12 -13 -31 -14 -42 0
-10 -11 -29 -24 -41 -14 -13 -27 -39 -31 -66 -4 -24 -12 -50 -18 -57 -5 -7
-16 -48 -23 -92 -16 -105 -1 -187 43 -232 l31 -30 22 22 c28 28 37 19 13 -14
-12 -17 -24 -23 -37 -20 -12 4 -16 2 -11 -5 4 -7 14 -11 23 -9 10 1 35 -8 57
-22 36 -22 49 -24 134 -22 80 2 102 7 144 29 60 33 84 63 99 120 8 35 23 55
69 95 42 36 63 63 71 91 12 39 12 39 54 34 23 -2 48 0 57 4 23 13 47 0 47 -26
0 -13 5 -27 10 -30 6 -3 10 -17 10 -30 0 -44 30 -91 66 -104 38 -14 41 -28 20
-89 -13 -37 -13 -43 10 -88 33 -64 52 -84 84 -84 27 0 27 0 27 -72 0 -40 0
-84 1 -98 4 -54 -6 -116 -22 -147 l-17 -32 42 -62 c43 -64 44 -72 24 -159 -4
-21 -3 -20 9 6 17 34 24 240 12 316 -5 26 -4 53 2 63 12 22 24 -78 22 -187 -1
-43 3 -79 9 -82 7 -5 7 -13 1 -24 -5 -9 -14 -36 -20 -59 -6 -23 -17 -48 -24
-55 -12 -12 -24 -54 -28 -98 -1 -8 1 -28 5 -43 9 -33 -9 -28 -23 7 -8 20 -9
20 -9 1 -1 -33 26 -63 62 -68 28 -3 27 -4 -10 -5 -33 -2 -45 3 -57 20 -9 12
-16 18 -16 12 0 -6 9 -23 21 -38 23 -29 15 -35 -13 -9 -10 9 -18 12 -18 6 0
-14 22 -39 45 -51 14 -8 16 -11 5 -12 -9 0 -26 7 -39 16 -22 16 -23 15 -19 -2
2 -10 14 -24 26 -30 13 -6 19 -15 14 -18 -13 -8 -42 3 -42 15 0 5 -5 9 -10 9
-18 0 8 -39 38 -54 24 -14 25 -15 6 -16 -12 0 -27 7 -34 15 -16 19 -23 14 -14
-10 4 -9 21 -23 38 -31 l31 -13 -27 -1 c-16 0 -33 8 -41 20 -14 21 -14 21 -20
-1 -3 -12 -1 -32 6 -43 6 -12 10 -25 9 -29 -1 -5 1 -6 6 -3 5 3 22 1 38 -4
l29 -10 -28 4 c-17 2 -26 -1 -24 -7 2 -6 19 -13 38 -15 45 -5 51 -12 11 -12
-18 0 -32 -3 -32 -7 0 -15 17 -34 31 -36 8 -2 21 -7 29 -12 14 -9 114 -10 128
-1 4 3 14 1 22 -4 12 -7 12 -16 2 -55 -15 -56 -15 -92 -1 -100 16 -10 0 -66
-26 -95 -39 -41 -47 -78 -46 -200 1 -117 -18 -221 -55 -292 -12 -24 -13 -35
-3 -63 10 -28 10 -39 0 -59 -7 -13 -10 -29 -7 -35 16 -25 14 -55 -5 -80 -23
-32 -24 -44 -10 -130 18 -115 33 -162 48 -149 7 6 13 8 13 6 0 -2 5 -30 10
-61 12 -62 47 -131 84 -166 14 -13 24 -27 21 -30 -2 -4 4 -7 13 -8 9 -1 35 -8
57 -17 46 -17 122 -21 159 -6 14 5 26 6 26 1 0 -24 -57 -42 -148 -46 -42 -2
-60 2 -85 21 -18 13 -45 30 -62 39 -27 14 -28 14 -10 0 11 -8 28 -22 37 -30
41 -34 75 -44 142 -40 97 4 121 17 151 81 36 77 40 106 20 166 -10 29 -26 105
-36 168 -31 192 -31 194 15 215 51 24 62 42 85 132 26 99 73 234 112 320 23
50 29 78 29 129 0 82 29 236 47 247 7 4 13 18 12 30 0 21 -1 21 -10 -3 l-10
-24 -12 24 c-11 21 -21 25 -65 28 -51 3 -67 14 -37 26 8 3 15 12 15 19 0 8 15
19 33 25 l32 10 -30 1 c-16 0 -41 -6 -55 -14 -14 -8 -36 -14 -50 -14 -20 0
-17 3 14 14 21 7 46 21 55 30 12 12 5 11 -31 -5 -53 -23 -115 -24 -128 0 -6 9
-10 10 -10 3 0 -23 -20 -14 -21 10 -1 21 -1 21 -9 -3 -6 -22 -8 -23 -15 -7 -9
21 -27 23 -19 2 4 -8 3 -15 0 -15 -4 0 -11 10 -16 22 -7 18 -9 19 -9 6 -1 -24
-18 -23 -31 2 -9 17 -7 22 12 29 13 5 26 7 31 4 4 -2 7 1 7 8 0 6 8 9 20 6 11
-3 20 -1 20 4 0 5 -4 9 -10 9 -5 0 -10 4 -10 9 0 5 10 9 23 9 38 -1 76 6 72
12 -2 4 -27 7 -56 9 -64 3 -124 25 -170 65 -20 17 -50 39 -68 48 -19 11 -29
22 -25 29 5 8 9 8 14 -1 4 -6 10 -11 14 -11 26 4 36 0 30 -11 -4 -7 2 -5 14 6
24 21 19 40 -9 33 -12 -3 -17 -1 -12 5 4 8 -6 9 -30 5 -27 -4 -37 -2 -41 10
-4 9 -9 13 -12 10 -3 -3 0 -15 6 -27 6 -11 9 -26 7 -33 -3 -7 -10 2 -17 20 -6
17 -22 39 -36 48 -22 14 -34 8 -17 -9 4 -4 6 -28 5 -54 -1 -35 1 -42 8 -27 8
19 9 19 9 -2 1 -12 -4 -25 -9 -28 -7 -4 -5 -16 6 -33 21 -36 4 -88 -23 -73
-48 26 -63 51 -63 104 0 29 5 58 12 65 7 7 9 12 5 12 -4 0 2 17 13 38 18 35
25 39 61 40 24 1 38 -2 34 -8 -3 -6 -1 -10 5 -10 7 0 9 7 6 16 -3 9 -6 18 -6
20 0 2 -7 4 -16 4 -27 0 -43 24 -31 46 5 10 16 23 24 27 7 4 13 14 13 22 0 7
3 15 8 17 10 4 76 98 95 134 9 16 24 38 34 49 10 11 29 38 43 60 13 22 36 57
52 77 l29 37 52 -15 c61 -18 127 -58 127 -78 0 -7 7 -19 15 -26 14 -11 14 -10
5 14 -15 41 -13 42 20 11 17 -16 30 -35 30 -42 0 -7 4 -13 8 -13 18 0 4 43
-19 61 -13 10 -24 24 -24 31 0 11 -124 89 -159 101 -10 3 10 40 35 67 14 15
20 16 47 4 47 -19 183 -114 178 -123 -3 -4 10 -23 30 -42 29 -28 34 -40 33
-74 -2 -73 -5 -75 -49 -37 -22 20 -37 38 -35 41 3 2 21 -11 40 -29 19 -19 35
-29 35 -23 0 7 -26 32 -57 56 -71 54 -100 69 -53 28 21 -18 29 -31 20 -31 -8
0 9 -24 39 -54 52 -53 54 -56 61 -128 4 -40 17 -93 29 -118 23 -50 26 -82 11
-111 -8 -14 -6 -32 7 -68 16 -46 16 -51 0 -87 -9 -22 -22 -61 -28 -89 -12 -51
-57 -102 -103 -117 -18 -5 -18 -6 5 -7 42 -2 104 73 114 135 4 26 15 64 25 84
16 32 17 39 4 69 -9 22 -12 50 -8 86 5 42 2 65 -19 116 -25 64 -32 131 -29
265 2 54 5 62 24 67 17 5 30 -3 56 -33 18 -22 39 -40 45 -40 7 0 17 -8 22 -18
14 -26 33 -68 44 -95 6 -17 27 -31 69 -46 40 -15 64 -31 73 -48 8 -14 29 -32
47 -40 17 -7 33 -19 33 -26 1 -6 2 -16 4 -22 1 -5 3 -24 3 -42 2 -24 11 -38
44 -62 24 -18 54 -31 71 -31 35 0 67 -16 67 -34 0 -8 7 -19 15 -26 23 -19 21
-157 -2 -183 -15 -16 -17 -32 -14 -91 9 -142 3 -232 -23 -340 -28 -116 -32
-151 -16 -161 26 -16 8 -64 -55 -151 -19 -26 -5 -65 32 -89 13 -9 21 -21 17
-26 -7 -12 34 -59 52 -59 7 0 18 -8 23 -17 6 -10 11 -13 11 -6 0 7 -16 24 -35
39 -19 14 -35 33 -35 40 0 8 -13 26 -30 41 -29 25 -39 56 -22 67 7 4 67 -81
67 -96 0 -4 16 -22 35 -39 19 -18 35 -36 35 -41 0 -4 4 -8 8 -7 12 1 67 -52
67 -65 0 -5 -14 3 -32 20 -17 16 -7 1 23 -34 38 -44 53 -69 51 -86 -3 -24 37
-66 63 -66 7 0 20 -11 29 -25 9 -14 24 -25 34 -24 16 0 16 1 0 7 -18 7 -64 62
-53 62 4 0 2 7 -5 15 -7 8 -8 15 -2 15 12 0 34 -25 27 -32 -3 -3 2 -11 12 -19
14 -12 15 -12 9 0 -6 9 -5 12 5 9 8 -3 13 -11 11 -17 -1 -7 2 -10 7 -7 5 4 21
2 35 -4 37 -14 123 14 158 52 46 50 37 98 -46 232 -55 87 -98 197 -98 252 l-1
41 -65 -14 c-47 -9 -75 -10 -101 -3 -46 13 -54 13 -45 -1 5 -9 -7 -10 -42 -4
-53 7 -69 17 -86 49 -8 16 -3 14 23 -9 28 -25 30 -26 14 -5 -11 14 -25 30 -32
36 -11 9 -10 20 7 58 39 93 64 238 44 259 -3 3 -8 27 -10 54 -6 69 -9 87 -18
102 -6 9 1 21 20 37 29 24 60 33 49 14 -4 -6 -11 -8 -16 -5 -5 4 -9 4 -9 1 0
-3 9 -10 20 -16 16 -8 20 -8 18 2 -2 9 14 12 62 9 59 -3 68 -6 91 -35 25 -28
32 -31 85 -31 46 1 75 9 134 37 53 25 76 32 78 23 2 -7 -13 -45 -33 -84 -53
-106 -72 -158 -110 -308 -22 -86 -41 -140 -52 -149 -11 -8 -13 -13 -6 -14 22
0 41 43 76 180 35 132 72 233 122 325 13 25 22 52 19 60 -3 7 -1 16 5 20 6 3
10 18 10 33 -1 23 -2 23 -6 5 -6 -31 -17 -38 -128 -72 -114 -36 -147 -39 -143
-15 2 10 -3 19 -10 21 -8 3 -10 -1 -6 -14 5 -13 4 -15 -4 -8 -19 18 -64 263
-52 285 7 12 36 27 83 40 39 11 98 33 130 47 42 20 60 24 68 16 7 -7 9 -18 7
-25 -5 -12 -234 -94 -251 -90 -5 1 -5 -3 -1 -9 5 -9 2 -10 -9 -6 -20 7 -23 -8
-4 -20 7 -4 20 -45 29 -91 9 -46 22 -90 29 -98 18 -22 57 -16 159 24 94 37
110 52 96 87 -4 12 -11 11 -38 -5 -67 -39 -188 -71 -188 -49 0 8 -4 8 -14 0
-10 -8 -16 -9 -21 -1 -3 5 0 11 7 11 45 5 59 8 105 23 29 10 68 30 89 46 20
17 40 28 44 25 7 -4 -7 97 -17 125 -3 8 -6 26 -7 39 -1 14 -7 26 -14 29 -7 2
-12 14 -12 27 0 12 -12 49 -26 81 -21 47 -23 62 -15 81 26 56 14 101 -47 182
-13 17 -19 31 -13 31 13 0 62 101 63 131 1 13 6 29 11 36 12 17 0 33 -26 33
-21 0 -21 1 3 18 14 9 26 26 28 37 2 11 -1 16 -5 10 -4 -5 -17 -17 -28 -25
-17 -13 -17 -11 3 14 12 16 22 34 22 40 0 8 -2 8 -8 0 -4 -6 -18 -17 -32 -24
l-25 -12 23 21 c12 12 22 29 22 38 0 14 -3 14 -21 -3 -21 -19 -21 -18 1 19 12
20 17 37 12 37 -6 0 -13 -6 -16 -12 -3 -7 -4 -1 -2 15 4 32 -4 35 -22 7 -20
-33 -31 -23 -13 14 12 25 19 31 29 23 9 -7 11 -6 6 7 -9 24 -29 20 -42 -9 -7
-16 -20 -25 -34 -25 l-21 0 21 23 c12 13 22 34 21 48 l-1 24 -7 -24 c-3 -13
-16 -28 -29 -32 -22 -8 -31 4 -12 16 17 10 11 52 -11 76 l-21 24 16 -25 c18
-27 22 -65 6 -55 -5 3 -10 1 -10 -4 0 -6 -7 -11 -17 -11 -15 0 -14 2 2 20 17
18 17 21 -2 52 -11 18 -27 33 -36 33 -9 0 -22 6 -29 13 -6 6 -16 12 -20 12 -4
0 1 -9 13 -21 21 -21 23 -60 3 -66 -7 -2 -14 11 -18 30 -4 19 -16 43 -27 53
l-21 19 18 -31 c17 -30 14 -64 -5 -64 -8 0 -26 66 -23 83 1 4 -2 7 -7 7 -5 0
-17 3 -27 7 -15 6 -14 3 4 -17 21 -23 29 -60 15 -73 -11 -11 -33 14 -33 38 0
23 -39 80 -40 58 0 -6 5 -15 10 -18 11 -7 14 -48 4 -58 -12 -12 -34 6 -34 27
0 12 -6 28 -12 34 -10 10 -10 15 2 22 8 5 10 10 4 10 -7 0 -34 18 -60 40 -55
45 -64 48 -64 21 0 -30 -10 -50 -23 -46 -7 2 -25 6 -42 10 l-30 7 21 -24 c29
-31 35 -53 21 -72 -10 -14 -12 -12 -14 14 -1 17 -9 40 -18 52 -8 13 -15 33
-15 46 0 19 3 21 20 12 15 -8 21 -6 29 9 6 10 8 21 5 24 -3 3 -1 14 4 24 12
20 17 12 25 -37 4 -20 5 -19 6 8 1 26 -7 39 -40 69 -22 20 -47 49 -55 65 -8
16 -32 44 -53 63 -29 27 -40 45 -44 76 -3 23 -13 49 -23 58 -16 15 -16 15 -9
-4 4 -11 13 -39 20 -63 7 -28 26 -57 53 -84 40 -38 56 -68 30 -52 -45 27 -99
80 -95 94 3 11 -3 16 -17 18 -15 1 -17 -1 -7 -7 10 -6 4 -12 -21 -20 -19 -6
-41 -10 -49 -8 -8 2 -11 2 -6 0 4 -3 5 -9 2 -14 -3 -4 13 -2 37 7 24 8 38 11
33 6 -12 -11 -72 -32 -91 -32 -8 0 -24 20 -36 44 -19 36 -26 42 -43 35 -19 -7
-19 -8 1 -8 13 -1 24 -9 27 -21 4 -16 -2 -22 -35 -31 -22 -5 -38 -12 -36 -14
2 -3 21 0 42 6 30 8 41 8 47 -3 5 -8 4 -14 -4 -17 -7 -2 -79 -28 -162 -59 -82
-30 -157 -57 -165 -59 -75 -22 184 81 309 123 8 2 12 7 9 9 -3 3 -52 -12 -109
-34 -176 -65 -239 -93 -234 -101 5 -8 -145 -73 -152 -66 -2 2 28 16 68 32 39
15 67 30 61 32 -6 2 -59 -17 -118 -42 -108 -46 -149 -55 -77 -17 21 11 34 20
28 20 -5 0 -21 -6 -35 -14 -28 -16 -50 -19 -50 -7 0 4 20 15 45 25 25 11 45
23 45 28 0 8 -33 -4 -82 -31 -11 -6 -19 -6 -23 0 -3 5 8 16 25 25 41 21 38 29
-5 11 -19 -8 -35 -12 -35 -8 1 23 616 249 647 237 7 -2 13 -11 13 -19 0 -20
21 -66 31 -66 4 0 1 12 -6 28 -18 36 -31 93 -16 72 5 -8 13 -11 17 -7 4 3 2
12 -3 19 -12 15 -44 120 -38 126 2 2 6 -6 10 -17 6 -19 27 -31 24 -13 -6 34 4
49 34 59 32 10 33 9 29 -13 -2 -13 0 -24 6 -24 12 0 37 -68 28 -77 -3 -4 -6 0
-6 8 0 10 -2 11 -8 2 -4 -7 -26 -20 -47 -28 -34 -13 -36 -15 -10 -11 17 3 39
8 49 12 13 5 17 4 12 -4 -3 -6 -2 -13 3 -16 13 -8 33 54 22 68 -9 12 -23 66
-26 106 -5 53 -18 100 -31 111 -8 6 -11 15 -8 20 3 5 0 25 -6 44 -8 24 -18 35
-31 35 -16 0 -19 -5 -14 -19 5 -17 -1 -22 -35 -31 -37 -10 -44 -9 -56 7 -18
24 -17 14 1 -30 8 -19 23 -37 35 -40 11 -3 20 -10 20 -15 0 -6 -12 -4 -29 4
-36 18 -59 68 -43 95 8 13 9 25 2 41 -9 20 -10 19 -4 -7 3 -16 2 -27 -2 -22
-11 10 -93 222 -110 282 -8 28 -22 61 -32 75 -10 14 -26 45 -36 70 -10 25 -27
64 -37 88 -11 24 -17 47 -14 52 9 15 -16 58 -37 64 -19 4 -19 3 3 -20 31 -33
20 -39 -15 -8 -15 15 -37 26 -49 26 -49 -2 -163 -24 -211 -43 -28 -10 -61 -19
-73 -19 -12 0 -34 -5 -50 -11 -15 -7 -40 -11 -55 -10 -18 2 -37 -7 -59 -29
-18 -17 -44 -33 -58 -36 -90 -21 -140 -44 -199 -91 -31 -25 -62 -39 -110 -49
-37 -8 -67 -14 -68 -14 0 0 0 9 1 20 2 32 132 104 365 205 177 76 495 136 519
97 5 -8 21 -7 58 5 28 9 57 14 64 11 8 -3 17 -5 21 -4 8 1 58 -45 58 -55 0 -4
22 -45 49 -91 55 -93 114 -230 142 -328 33 -115 20 -99 -40 50 -60 150 -173
384 -190 394 -5 4 20 -53 56 -126 36 -73 96 -208 133 -300 64 -161 67 -166 79
-140 7 15 24 48 37 73 13 26 24 54 24 63 0 29 44 85 72 91 57 13 65 52 23 114
-37 54 -44 71 -21 52 12 -10 19 1 42 63 16 41 30 73 32 71 6 -5 -28 -106 -44
-132 -12 -20 -11 -26 11 -59 15 -22 25 -30 25 -20 0 19 56 146 64 146 3 0 -4
-24 -15 -52 -40 -102 -39 -97 -24 -92 8 3 13 9 12 12 -4 13 35 102 45 102 5 0
7 10 3 23 -5 20 -5 20 5 4 9 -14 9 -22 -3 -35 -16 -19 -32 -62 -22 -62 3 0 10
12 16 28 6 15 13 22 16 15 2 -7 -1 -21 -7 -32 -9 -17 -8 -20 5 -15 8 3 13 10
10 14 -3 4 3 14 12 21 15 12 16 12 10 -3 -3 -10 -2 -18 3 -18 16 0 11 18 -21
75 -17 30 -28 55 -23 55 4 0 -1 9 -11 20 -18 20 -18 21 0 14 14 -6 17 -4 12 8
-4 12 4 17 36 22 40 7 41 8 19 20 -21 11 -21 13 -5 29 9 9 13 20 9 24 -4 4
-10 3 -14 -2 -4 -6 -16 -12 -27 -14 -19 -3 -19 -2 -2 16 9 11 14 23 10 26 -9
9 27 47 44 47 7 0 25 7 39 16 23 15 26 15 43 0 15 -14 20 -14 24 -4 3 7 5 4 4
-7 -1 -11 2 -47 6 -80 11 -87 -17 -181 -63 -212 -18 -13 -27 -23 -19 -23 33 0
59 32 79 100 27 91 20 208 -16 255 -12 17 -30 50 -40 74 -14 36 -25 47 -63 63
-25 11 -55 28 -66 37 -35 29 -138 93 -130 81 4 -7 39 -33 77 -58 39 -26 75
-50 82 -55 6 -4 23 -11 38 -17 18 -6 36 -26 53 -59 30 -60 30 -61 6 -61 -11 0
-23 -4 -26 -10 -14 -22 -26 -8 -23 27 1 20 -2 38 -8 40 -7 2 -10 -6 -7 -21 3
-13 0 -32 -6 -43 -9 -16 -11 -16 -12 7 -1 14 -1 30 0 37 2 17 -33 25 -63 13
-35 -13 -39 -13 -30 2 4 7 3 8 -5 4 -6 -4 -9 -12 -6 -17 8 -11 -31 -6 -42 6
-5 4 -2 5 5 1 6 -4 12 -2 12 3 0 6 -4 11 -10 11 -5 0 -10 15 -11 33 -1 26 -3
23 -14 -22 -14 -59 -39 -85 -88 -95 -44 -9 -77 -7 -77 4 0 5 6 7 13 4 7 -2 24
0 38 6 l24 10 -27 -3 c-36 -5 -27 9 10 16 29 6 87 56 76 66 -3 3 -13 -4 -22
-16 -9 -12 -30 -27 -45 -32 -37 -14 -128 -14 -147 0 -11 8 -8 9 15 4 37 -8 25
6 -18 21 -18 6 -32 17 -32 24 0 7 -6 15 -12 18 -7 2 -13 -1 -13 -7 0 -6 -7
-11 -16 -11 -13 0 -14 -3 -4 -15 6 -8 9 -19 5 -25 -15 -24 7 -99 41 -135 39
-43 40 -44 17 -44 -10 0 -43 -2 -73 -3 -30 -2 -63 1 -72 6 -11 7 -21 6 -33 -4
-10 -8 -32 -13 -51 -11 -19 1 -47 -4 -62 -11 -15 -8 -35 -11 -43 -7 -7 4 -22
10 -31 13 -11 3 -18 15 -18 31 0 23 -4 25 -44 25 l-43 0 -5 88 c-3 49 -11 98
-17 108 -12 18 -12 18 -6 -1 4 -11 9 -58 12 -105 l6 -85 -97 -18 c-124 -22
-283 -76 -416 -139 -66 -32 -117 -50 -137 -49 -17 1 -34 -3 -37 -7 -3 -5 -45
-7 -94 -4 -73 4 -90 2 -101 -12 -19 -23 -46 -20 -64 7 -18 27 -28 21 -16 -10
6 -18 16 -23 42 -23 19 0 40 7 47 15 14 17 65 19 124 5 29 -6 47 -5 67 6 39
20 49 17 16 -4 -23 -15 -41 -18 -107 -14 -67 4 -81 2 -86 -12 -12 -31 -115
-14 -129 22 -3 8 -1 20 5 26 5 5 10 21 10 34 0 23 2 24 44 18 93 -14 345 25
491 76 84 29 226 103 296 154 85 63 145 165 105 180 -9 3 -16 12 -16 19 0 7
-16 44 -35 83 -42 83 -103 142 -190 183 -103 49 -197 59 -312 34z m259 -25
c49 -14 160 -89 152 -102 -4 -6 -2 -8 3 -5 15 9 35 -17 27 -36 -3 -8 -1 -18 5
-22 7 -4 8 0 4 11 -5 12 -3 15 6 9 19 -11 50 -86 43 -103 -3 -10 -1 -13 6 -8
8 5 10 2 6 -8 -3 -9 -1 -16 5 -16 6 0 11 -4 11 -10 0 -15 -17 -12 -36 8 -10 9
-22 17 -27 17 -5 0 -15 8 -22 19 -8 10 -23 24 -34 30 -11 6 -42 28 -70 48 -28
21 -51 33 -51 28 0 -6 -5 -10 -11 -10 -6 0 -9 7 -5 15 3 8 1 16 -4 16 -20 3
-25 4 -37 12 -7 5 -13 4 -13 0 0 -5 6 -15 13 -23 10 -12 9 -12 -5 -1 -9 7 -22
10 -27 6 -6 -3 -19 -1 -28 5 -15 9 -14 10 7 5 23 -5 23 -5 -4 11 -17 9 -31 12
-35 7 -8 -13 -43 -13 -58 0 -8 5 -13 6 -13 0 0 -5 6 -15 13 -23 6 -8 2 -6 -11
5 -24 19 -62 28 -62 13 0 -4 -7 -8 -16 -8 -9 0 -12 5 -8 13 6 8 3 8 -9 -1 -9
-8 -21 -11 -27 -7 -5 3 -10 1 -10 -6 0 -9 -4 -8 -15 1 -11 9 -22 9 -45 2 -18
-7 -30 -7 -30 -1 0 5 -5 9 -11 9 -6 0 -8 -7 -5 -16 4 -9 1 -14 -6 -12 -6 2
-13 14 -15 27 -2 13 1 20 7 16 5 -3 10 -2 10 3 0 10 65 42 100 49 13 2 30 9
37 15 34 28 90 38 173 33 47 -2 102 -9 122 -15z m-456 -119 c0 -15 -3 -17 -13
-9 -7 6 -10 14 -7 19 9 15 20 10 20 -10z m474 -127 c0 -17 -22 -14 -28 4 -2 7
3 12 12 12 9 0 16 -7 16 -16z m79 -58 c15 -18 3 -46 -20 -46 -25 0 -35 26 -19
45 15 19 24 19 39 1z m185 -51 c-39 -83 -225 -206 -399 -264 -145 -48 -278
-71 -412 -71 -65 0 -123 4 -128 8 -14 9 -65 97 -65 111 0 6 4 11 10 11 10 0
65 -100 62 -112 -1 -5 45 -8 102 -8 159 0 343 37 495 100 162 66 308 176 332
249 7 20 14 31 16 24 3 -7 -3 -28 -13 -48z m-37 39 c-3 -3 -12 -4 -19 -1 -8 3
-5 6 6 6 11 1 17 -2 13 -5z m-862 -34 c3 -5 1 -10 -4 -10 -6 0 -11 5 -11 10 0
6 2 10 4 10 3 0 8 -4 11 -10z m465 0 c0 -5 -4 -10 -10 -10 -5 0 -10 5 -10 10
0 6 5 10 10 10 6 0 10 -4 10 -10z m330 -70 c0 -5 -4 -10 -10 -10 -5 0 -10 5
-10 10 0 6 5 10 10 10 6 0 10 -4 10 -10z m-650 -10 c0 -5 -4 -10 -10 -10 -5 0
-10 5 -10 10 0 6 5 10 10 10 6 0 10 -4 10 -10z m1584 -19 c-2 -3 -12 3 -22 13
-16 17 -16 18 5 5 12 -7 20 -15 17 -18z m104 8 c-2 -4 5 -15 14 -25 14 -16 14
-22 4 -36 -19 -26 -26 -22 -26 13 0 17 -4 28 -10 24 -5 -3 -10 -15 -10 -27 0
-33 -57 -123 -96 -153 -30 -23 -43 -26 -76 -22 -50 7 -81 32 -58 47 8 5 29 10
45 10 17 0 41 10 55 21 25 20 25 20 1 9 -33 -17 -69 -19 -80 -6 -7 8 -2 12 17
11 17 0 27 5 27 15 0 8 11 23 25 32 28 20 11 24 -23 6 -28 -15 -77 -20 -77 -8
0 5 9 7 21 5 16 -3 18 -1 10 9 -8 9 0 18 35 34 25 13 43 18 39 12 -3 -5 1 -10
10 -10 11 0 15 5 11 15 -4 12 -2 13 12 6 11 -6 31 -3 62 10 43 17 74 21 68 8z
m-1428 -8 c0 -6 -4 -13 -10 -16 -5 -3 -10 1 -10 9 0 9 5 16 10 16 6 0 10 -4
10 -9z m-420 -5 c0 -11 -19 -15 -25 -6 -3 5 1 10 9 10 9 0 16 -2 16 -4z m1950
-10 c0 -2 -7 -7 -16 -10 -8 -3 -12 -2 -9 4 6 10 25 14 25 6z m45 -6 c3 -5 2
-10 -4 -10 -5 0 -13 5 -16 10 -3 6 -2 10 4 10 5 0 13 -4 16 -10z m-1735 -4 c0
-3 -4 -8 -10 -11 -5 -3 -10 -1 -10 4 0 6 5 11 10 11 6 0 10 -2 10 -4z m1300
-42 c0 -8 -5 -12 -10 -9 -6 4 -8 11 -5 16 9 14 15 11 15 -7z m80 -44 c0 -5 -5
-10 -11 -10 -5 0 -7 5 -4 10 3 6 8 10 11 10 2 0 4 -4 4 -10z m-591 -17 c0 -12
-2 -13 -6 -5 -3 8 -9 10 -16 3 -16 -13 -48 -16 -70 -6 -31 13 -373 -77 -361
-96 3 -5 -1 -6 -9 -3 -8 3 -17 -2 -21 -11 -5 -13 -1 -15 17 -10 13 3 8 -3 -13
-14 -19 -11 -39 -20 -45 -20 -5 0 1 6 15 14 15 9 19 14 10 15 -13 0 -13 1 0
10 17 11 10 13 -14 4 -9 -3 -14 -10 -11 -14 3 -5 -3 -8 -12 -7 -29 2 -256
-114 -245 -125 6 -6 17 -6 31 1 45 25 18 1 -46 -39 -37 -23 -61 -35 -54 -27 8
10 9 17 1 22 -13 8 -32 -4 -25 -16 3 -5 -2 -6 -11 -2 -13 5 -15 3 -9 -7 5 -8
4 -11 -2 -7 -5 4 -25 -5 -44 -19 -19 -14 -26 -24 -17 -22 9 2 17 0 17 -4 1 -5
-1 -8 -4 -8 -3 0 -9 0 -14 0 -4 0 -20 11 -35 25 -15 14 -32 25 -38 25 -5 0 -8
7 -5 14 4 9 1 13 -6 10 -18 -7 -61 41 -51 58 4 7 4 10 -1 6 -9 -9 -35 9 -35
23 0 5 5 9 10 9 6 0 10 -6 10 -12 0 -7 11 -14 25 -14 45 -3 59 -12 45 -29 -8
-10 -9 -15 -2 -15 6 0 15 7 20 16 8 14 13 14 32 4 21 -11 26 -10 44 12 21 25
86 46 86 29 0 -5 -6 -12 -12 -14 -10 -4 -10 -6 0 -6 7 -1 15 6 18 14 4 8 12
15 20 15 24 0 16 -15 -18 -35 -18 -10 -53 -33 -77 -52 -45 -34 -68 -43 -54
-20 11 18 12 37 2 37 -5 0 -9 -9 -9 -20 0 -25 -20 -27 -21 -2 0 11 -2 13 -6 4
-3 -8 4 -22 16 -33 20 -19 21 -19 97 36 96 69 388 214 514 256 124 41 250 67
328 68 53 1 62 -2 61 -16z m781 14 c0 -2 -10 -12 -22 -23 l-23 -19 19 23 c18
21 26 27 26 19z m-1911 -61 c34 -58 39 -101 16 -132 -13 -17 -14 -15 -12 31 3
98 -59 167 -83 93 l-10 -33 5 34 c11 77 43 79 84 7z m1038 28 c-3 -3 -12 -4
-19 -1 -8 3 -5 6 6 6 11 1 17 -2 13 -5z m415 -110 c111 -208 188 -427 168
-477 -8 -20 -9 -19 -9 9 -1 50 -35 162 -80 268 -49 113 -136 276 -157 292 -23
18 -16 28 9 12 12 -9 43 -55 69 -104z m-452 98 c0 -9 -199 -56 -206 -49 -3 3
32 14 78 26 46 12 88 24 93 26 18 6 35 5 35 -3z m500 -17 c10 -9 23 -36 29
-61 6 -24 15 -44 20 -44 13 0 -16 90 -36 112 -15 17 -15 18 0 18 10 0 17 -4
17 -10 0 -5 19 -22 43 -36 45 -29 59 -43 51 -56 -3 -4 -1 -8 4 -8 5 0 21 -17
35 -37 13 -21 41 -56 60 -77 53 -59 74 -102 61 -124 -19 -29 -44 -27 -44 3 0
24 -25 85 -35 85 -2 0 2 -17 9 -38 15 -42 11 -85 -9 -102 -9 -8 -12 -4 -12 15
0 26 -50 111 -60 101 -3 -2 5 -20 18 -38 30 -42 31 -102 4 -188 -9 -27 -21
-18 -29 22 -14 73 -174 430 -206 462 -20 20 -9 29 26 23 20 -3 44 -13 54 -22z
m-1536 -1 c4 -10 2 -13 -6 -7 -7 4 -3 -6 10 -21 25 -33 29 -66 7 -66 -8 0 -19
9 -25 19 -11 22 -14 74 -3 84 9 10 10 9 17 -9z m1686 -4 c0 -5 -5 -10 -11 -10
-5 0 -7 5 -4 10 3 6 8 10 11 10 2 0 4 -4 4 -10z m225 -53 c28 -59 29 -61 16
-53 -10 7 -51 78 -51 91 0 17 18 -1 35 -38z m-1132 3 c-4 -4 -19 -10 -33 -14
-14 -3 -19 -3 -12 0 6 3 10 9 7 14 -3 4 5 6 17 2 16 -4 19 -2 13 8 -6 9 -4 11
4 5 7 -4 9 -11 4 -15z m478 -2 c40 -22 58 -51 88 -142 l17 -53 -50 -2 c-69 -3
-72 -11 -5 -11 48 0 59 -4 84 -30 22 -22 28 -40 29 -72 1 -24 6 -47 13 -53 6
-5 18 -32 27 -58 9 -26 25 -66 37 -89 11 -22 24 -61 29 -87 4 -25 22 -83 39
-128 16 -46 27 -83 24 -83 -4 0 -2 -5 4 -11 6 -6 9 -18 6 -25 -3 -8 0 -14 6
-14 20 0 12 -16 -31 -66 -42 -47 -37 -52 9 -11 26 23 29 22 37 -13 6 -24 3
-26 -118 -65 l-124 -40 -13 30 c-7 17 -14 33 -16 36 -2 4 7 9 19 12 35 9 155
66 140 67 -7 0 -27 -7 -44 -16 -34 -18 -131 -45 -137 -38 -7 6 -2 8 82 38 42
16 77 32 77 36 0 5 -26 -2 -57 -14 -69 -28 -122 -41 -108 -28 6 5 38 19 72 30
68 22 149 73 151 94 5 73 -1 95 -66 257 -39 96 -77 180 -84 187 -12 12 -38 6
-167 -37 -139 -47 -155 -50 -166 -36 -11 15 -13 15 -22 -5 -8 -19 -10 -20 -16
-4 -4 9 -3 15 2 12 5 -3 11 0 14 7 3 8 30 26 61 41 31 15 56 31 56 35 0 5 -23
-3 -51 -16 -69 -33 -71 -25 -3 12 73 40 69 53 -5 16 -52 -27 -59 -28 -64 -13
-3 9 -8 26 -12 37 -8 20 -7 20 7 1 19 -25 49 -30 40 -8 -4 11 -7 12 -10 3 -3
-8 -8 -7 -17 6 -7 10 -26 18 -44 18 -35 1 -45 -15 -45 -80 -1 -37 -4 -41 -56
-72 -82 -48 -89 -54 -45 -36 41 16 105 33 105 28 0 -2 -16 -13 -36 -24 -20
-12 -34 -25 -30 -28 3 -4 12 -1 18 5 15 15 38 16 38 2 0 -5 -6 -10 -12 -10
-33 -1 -40 -16 -22 -53 10 -20 22 -33 27 -30 6 3 7 1 4 -4 -9 -15 13 -74 25
-67 5 3 9 0 7 -7 -3 -28 1 -40 13 -33 8 5 9 2 5 -10 -4 -11 -3 -15 4 -10 7 4
9 0 5 -13 -10 -32 14 -45 55 -32 19 7 38 16 44 20 17 16 25 9 59 -58 19 -38
35 -62 36 -55 0 7 5 10 11 7 5 -4 -6 25 -26 64 -19 39 -38 71 -41 71 -3 0 -2
-4 1 -10 3 -5 1 -10 -4 -10 -6 0 -11 5 -11 10 0 6 -13 4 -30 -5 -16 -8 -36
-15 -44 -15 -8 0 -16 -5 -18 -12 -5 -13 -28 -2 -28 13 0 6 5 7 10 4 6 -4 -1
20 -16 52 -14 32 -35 77 -45 101 -10 24 -23 41 -28 38 -5 -3 -11 0 -14 8 -4
10 11 21 46 36 54 24 215 80 228 80 4 0 11 -10 15 -22 4 -13 18 -40 31 -60 13
-21 21 -38 18 -38 -3 0 2 -15 11 -32 23 -44 104 -231 101 -233 -1 -1 -33 -14
-72 -28 -38 -14 -113 -41 -165 -60 -52 -19 -97 -31 -99 -26 -1 6 -9 2 -15 -7
-11 -14 -27 7 -119 162 -77 130 -103 182 -96 191 6 7 8 17 5 22 -8 12 32 41
55 41 10 0 20 -5 22 -10 3 -6 4 -5 3 2 -6 32 -84 11 -90 -24 -1 -7 -11 -29
-23 -48 -27 -44 -37 -98 -25 -131 8 -21 7 -28 -10 -38 -17 -10 -22 -9 -34 6
-13 17 -14 17 -8 -2 l6 -20 -17 20 c-9 11 -23 32 -30 46 -14 26 -12 29 56 108
38 44 67 81 63 81 -4 0 -17 -12 -30 -26 -14 -15 -29 -22 -37 -18 -6 4 -9 3 -4
-1 7 -9 -70 -95 -85 -95 -4 0 -12 9 -18 21 -9 17 -8 25 7 41 18 21 18 21 -4 9
-28 -14 -36 -14 -27 1 4 6 3 8 -3 5 -6 -4 -21 5 -33 18 -13 14 -19 25 -14 25
5 0 18 13 28 28 l19 27 -30 -28 c-30 -28 -54 -24 -37 6 4 6 4 9 -1 5 -12 -11
-35 11 -28 28 3 7 10 11 16 7 5 -3 7 -1 3 5 -3 6 2 17 12 24 10 7 22 19 27 27
5 8 -12 0 -38 -19 -46 -32 -47 -33 -67 -15 -19 17 -19 19 -2 31 9 7 12 14 7
14 -6 0 -16 -5 -21 -10 -7 -7 -16 -4 -28 9 -17 19 -17 20 31 45 26 14 41 25
33 26 -9 0 -33 -9 -55 -20 -44 -23 -48 -24 -41 -11 3 5 -2 15 -11 22 -12 10
-14 10 -9 2 4 -7 3 -13 -3 -13 -21 0 -19 18 7 49 21 25 40 34 88 44 44 9 73
22 106 49 25 20 60 44 79 52 33 15 141 47 156 47 4 0 12 -23 19 -50 6 -28 16
-57 23 -64 14 -18 4 -48 -14 -41 -9 4 -13 -1 -11 -12 3 -21 28 -26 67 -12 21
7 38 7 59 -2 29 -12 47 -11 42 3 -2 7 13 11 37 7 13 -1 13 1 2 14 -16 19 -1
21 19 4 12 -11 12 -10 1 5 -7 9 -22 17 -32 17 -29 0 -22 17 11 29 31 10 38 25
18 37 -7 5 -8 3 -3 -6 6 -10 4 -12 -9 -7 -10 4 -15 3 -11 -3 3 -6 2 -10 -3
-10 -4 0 -18 -9 -30 -20 -12 -12 -22 -16 -22 -9 0 8 -4 8 -15 -1 -10 -9 -15
-9 -15 -1 0 10 13 15 33 12 13 -2 8 44 -8 65 -8 10 -15 15 -15 10 0 -5 -6 -3
-14 3 -7 6 -21 9 -30 5 -21 -8 -22 -54 0 -54 8 0 12 5 9 10 -11 17 5 32 21 19
8 -6 14 -8 14 -3 0 5 5 1 11 -9 6 -10 9 -20 7 -21 -1 -1 -20 -12 -40 -24 l-38
-21 -15 22 c-21 30 -19 44 3 17 18 -22 19 -22 51 -6 18 10 31 20 28 22 -3 3
-19 -1 -35 -10 l-30 -15 -21 52 c-21 49 -21 52 -5 64 10 7 23 13 28 12 6 0 1
-5 -12 -11 -23 -11 -25 -29 -5 -35 6 -2 18 3 26 12 15 14 17 14 27 -6 7 -11
14 -18 17 -15 3 3 -4 17 -16 32 -37 47 -30 57 55 70 27 4 64 14 84 22 19 8 69
20 110 27 41 7 77 13 79 14 2 1 21 -9 42 -21z m-1256 -54 c8 -3 12 -10 9 -15
-10 -17 -54 44 -54 73 1 7 7 -2 15 -20 8 -18 21 -35 30 -38z m1731 3 c18 -34
44 -64 44 -49 0 5 -9 19 -20 32 -26 30 -25 38 5 32 21 -4 24 -9 20 -31 -5 -22
-4 -23 4 -6 6 13 10 15 10 5 0 -8 -5 -25 -12 -38 -13 -22 -14 -22 -28 -5 -17
19 -59 91 -59 99 0 13 22 -10 36 -39z m-1644 11 c-7 -7 -12 -8 -12 -2 0 6 3
14 7 17 3 4 9 5 12 2 2 -3 -1 -11 -7 -17z m1731 -36 c-9 -29 -20 -52 -24 -52
-6 0 2 29 27 99 2 8 6 12 9 9 2 -2 -3 -27 -12 -56z m41 -28 c-14 -38 -21 -64
-16 -59 5 6 17 31 26 57 10 26 22 51 28 54 6 4 9 3 7 -2 -2 -5 -15 -37 -29
-72 -14 -34 -28 -62 -32 -62 -16 0 -17 40 -2 76 9 21 20 50 25 63 5 13 12 22
14 19 3 -3 -6 -36 -21 -74z m-1234 41 c0 -2 -6 -5 -13 -8 -8 -3 -14 1 -14 8 0
7 6 11 14 8 7 -3 13 -6 13 -8z m220 -4 c0 -9 -40 -27 -49 -22 -2 2 -8 -3 -12
-11 -6 -9 -9 -9 -9 -1 0 14 39 43 57 43 7 0 13 -4 13 -9z m-260 -16 c0 -2 -6
-5 -13 -8 -8 -3 -14 1 -14 8 0 7 6 11 14 8 7 -3 13 -6 13 -8z m1390 -36 c0 -6
-4 -7 -10 -4 -5 3 -10 11 -10 16 0 6 5 7 10 4 6 -3 10 -11 10 -16z m-1474 -4
c-11 -8 -25 -15 -30 -15 -6 1 0 7 14 15 32 19 40 18 16 0z m314 -50 c0 -5 -5
-3 -10 5 -5 8 -10 20 -10 25 0 6 5 3 10 -5 5 -8 10 -19 10 -25z m-534 -80
c-26 -19 -13 -19 24 0 17 9 30 11 30 6 0 -5 -7 -11 -15 -15 -8 -3 -15 -11 -15
-18 0 -9 3 -9 10 2 5 8 12 12 15 8 4 -4 -3 -20 -16 -37 -16 -22 -30 -31 -48
-30 l-26 2 25 4 c14 3 28 10 32 16 8 13 -1 37 -14 37 -5 0 -7 -4 -4 -8 3 -5
-1 -9 -9 -9 -18 0 -14 35 6 48 22 14 26 10 5 -6z m607 1 c4 -10 1 -13 -8 -9
-8 3 -12 9 -9 14 7 12 11 11 17 -5z m-53 -36 c-19 -13 -30 -13 -30 0 0 6 10
10 23 10 18 0 19 -2 7 -10z m150 -30 c0 -5 -2 -10 -4 -10 -3 0 -8 5 -11 10 -3
6 -1 10 4 10 6 0 11 -4 11 -10z m-12 -41 c-3 -8 -7 -3 -11 10 -4 17 -3 21 5
13 5 -5 8 -16 6 -23z m-632 -31 c96 -85 227 -235 306 -351 31 -46 43 -56 50
-46 7 11 8 9 4 -5 -4 -10 -1 -25 5 -33 7 -7 10 -16 7 -18 -2 -3 -30 31 -62 75
-31 44 -59 80 -62 80 -2 0 28 -47 67 -105 66 -98 95 -133 69 -84 -21 38 -3 30
24 -12 15 -22 26 -42 24 -44 -2 -1 -21 -12 -42 -23 -37 -20 -40 -20 -52 -4 -9
13 -9 19 -1 24 8 5 8 8 1 8 -6 0 -36 37 -67 83 -71 103 -123 164 -66 77 24
-36 60 -89 81 -117 21 -29 34 -53 28 -53 -5 0 -26 25 -46 55 -20 30 -40 52
-44 50 -4 -3 -14 3 -21 13 -13 15 -12 16 4 3 9 -7 17 -9 17 -3 0 13 -25 33
-32 26 -3 -3 -9 0 -14 7 -4 8 -3 10 4 5 17 -11 15 9 -3 24 -8 7 -15 9 -15 5 0
-4 -7 -2 -15 5 -9 7 -13 20 -10 28 9 23 -189 257 -207 245 -6 -3 -8 -1 -5 4 4
6 -3 19 -15 29 -21 19 -21 19 -8 -6 12 -24 11 -24 -19 4 -31 30 -43 49 -16 26
8 -6 19 -9 25 -5 7 4 28 -8 48 -26 27 -25 25 -21 -8 14 -41 44 -80 68 -49 30
13 -15 12 -15 -8 -3 -17 11 -20 17 -10 28 13 16 44 30 68 31 9 1 38 -18 65
-41z m678 33 c3 -5 -1 -11 -9 -14 -9 -4 -12 -1 -8 9 6 16 10 17 17 5z m370
-20 c17 -18 15 -20 -47 -40 -35 -12 -73 -29 -83 -37 -10 -9 -13 -13 -7 -9 41
20 148 54 154 47 4 -4 10 -17 13 -28 6 -20 -1 -25 -64 -50 -39 -15 -73 -31
-76 -36 -5 -8 0 -6 95 31 29 12 56 20 58 17 11 -11 -10 -25 -67 -46 -33 -12
-63 -26 -65 -30 -3 -5 28 4 67 20 40 15 76 25 80 22 9 -10 91 -223 86 -227 -7
-7 -153 -64 -156 -60 -2 2 -5 9 -6 17 -2 7 -10 30 -20 50 -9 21 -16 40 -16 43
0 3 -20 46 -44 94 -25 49 -42 92 -39 95 4 3 1 6 -5 6 -7 0 -12 8 -12 18 0 10
-7 28 -16 40 -12 18 -13 23 -2 26 13 5 152 54 154 55 0 1 9 -8 18 -18z m-1201
-69 c10 -1 17 -10 17 -21 0 -22 16 -37 22 -21 2 6 36 -22 76 -63 66 -69 85
-97 63 -97 -10 0 -91 91 -91 102 0 5 -4 6 -10 3 -5 -3 -10 -2 -10 2 0 5 -12
16 -27 25 -16 9 22 -35 82 -97 79 -80 123 -136 156 -194 39 -68 46 -76 45 -51
-1 16 -4 30 -8 30 -3 0 -17 17 -29 38 -12 20 -40 58 -61 83 -41 50 -45 59 -25
59 12 -1 31 -25 124 -163 42 -62 51 -82 43 -96 -9 -18 -4 -31 12 -31 4 0 8 7
8 16 0 8 5 12 11 8 6 -4 8 -20 5 -39 -4 -21 -2 -36 5 -41 8 -5 10 -3 4 7 -6
11 -5 12 5 2 11 -11 10 -17 -9 -37 -13 -14 -20 -29 -17 -35 4 -5 2 -12 -4 -16
-5 -3 -10 -1 -10 5 0 6 -4 9 -8 6 -13 -8 -13 55 0 73 7 9 8 13 3 8 -5 -4 -15
5 -22 20 l-13 28 2 -40 c2 -80 -2 -111 -12 -94 -5 9 -8 25 -5 37 6 35 -23 152
-51 201 -75 129 -239 300 -319 331 -42 16 -46 19 -22 19 16 1 37 -4 48 -9 10
-6 19 -8 19 -6 0 11 -60 36 -85 36 -14 0 -24 4 -20 9 5 8 34 9 108 3z m827
-27 c0 -5 -5 -3 -10 5 -5 8 -10 20 -10 25 0 6 5 3 10 -5 5 -8 10 -19 10 -25z
m45 25 c3 -5 1 -10 -4 -10 -6 0 -11 5 -11 10 0 6 2 10 4 10 3 0 8 -4 11 -10z
m-71 -16 c3 -8 2 -12 -4 -9 -6 3 -10 10 -10 16 0 14 7 11 14 -7z m-686 -42
c32 -33 124 -142 119 -142 -2 0 -37 36 -76 80 -40 44 -70 80 -67 80 3 0 14 -8
24 -18z m-184 -8 c9 -3 16 -12 16 -20 0 -9 11 -14 30 -14 22 0 43 -11 73 -40
40 -38 41 -40 17 -40 -22 -1 -20 -3 12 -15 45 -17 102 -76 85 -88 -8 -6 -6 -7
5 -3 20 6 63 -47 53 -64 -3 -5 0 -10 8 -10 8 0 24 -25 36 -57 24 -61 40 -193
25 -193 -5 0 -8 17 -6 39 2 21 -1 42 -7 45 -7 5 -11 -3 -12 -21 -1 -51 -8 -68
-36 -90 -15 -13 -32 -23 -37 -23 -5 0 4 10 20 22 62 47 55 56 -17 22 -66 -32
-95 -57 -120 -106 -17 -32 -62 -73 -58 -51 1 4 -3 20 -9 35 -7 17 -8 38 -3 56
5 16 5 35 1 43 -11 18 23 60 63 77 18 7 52 20 77 29 76 25 108 70 89 121 -7
18 -16 22 -54 22 -26 0 -63 -9 -86 -20 -34 -18 -45 -19 -79 -10 -43 12 -45 16
-42 105 0 22 -2 31 -5 20 -3 -11 -9 -25 -14 -31 -5 -6 -3 -29 7 -57 15 -43 18
-46 60 -53 34 -5 52 -2 84 15 42 22 85 27 108 12 20 -12 11 -64 -11 -67 -11
-1 -22 -6 -25 -10 -4 -4 2 -4 13 -1 20 7 20 7 1 -8 -23 -17 -40 -20 -31 -4 4
5 -9 3 -29 -5 -39 -16 -41 -18 -103 -71 -22 -20 -43 -32 -45 -28 -3 4 -3 3 -2
-4 2 -7 -12 -15 -34 -18 -55 -9 -67 -18 -70 -58 -2 -19 -10 -41 -18 -47 -8 -7
-14 -17 -14 -23 0 -18 41 27 55 61 10 21 26 38 49 47 49 21 50 20 41 -27 -4
-24 -6 -60 -6 -81 1 -20 -6 -51 -14 -68 -9 -17 -14 -33 -11 -36 3 -4 -3 -20
-14 -38 -11 -18 -16 -36 -12 -40 4 -5 1 -5 -5 -1 -9 5 -13 0 -13 -13 0 -11 -4
-22 -9 -25 -17 -11 3 50 27 84 25 33 24 33 -20 -8 -47 -45 -102 -66 -148 -56
-20 4 -22 3 -10 -5 23 -16 93 -13 119 6 18 12 22 13 16 2 -5 -8 -17 -20 -27
-27 -10 -7 -18 -19 -18 -26 0 -18 -22 -26 -72 -26 -27 0 -38 4 -35 13 2 6 10
11 17 9 31 -7 -2 25 -53 51 -31 16 -57 35 -57 43 0 20 13 17 28 -6 7 -11 17
-20 23 -20 8 0 7 5 -1 15 -11 14 -10 14 16 4 39 -15 73 -18 80 -7 3 4 10 5 16
2 7 -5 8 -2 4 5 -5 7 -20 11 -34 10 -15 -2 -36 2 -47 9 -14 8 -16 12 -5 12 13
0 13 1 0 11 -12 8 -10 9 8 4 14 -4 24 -2 27 7 3 8 20 13 43 12 20 -1 50 5 65
13 35 18 107 82 107 95 0 6 -14 -3 -31 -20 -35 -34 -87 -62 -114 -62 -10 0
-24 8 -31 18 -13 16 -14 16 -7 -2 8 -24 -12 -13 -27 14 -8 15 -7 17 10 13 24
-6 50 13 50 36 -1 14 -2 14 -11 -1 -5 -9 -15 -15 -22 -13 -6 2 -24 6 -38 9
-19 4 -33 18 -48 51 -22 47 -28 95 -11 95 6 0 10 -6 10 -12 0 -10 2 -10 8 0 6
9 14 4 30 -18 13 -16 29 -30 38 -30 8 0 21 -15 29 -32 10 -24 14 -27 14 -13 1
11 -4 27 -9 35 -6 10 -3 21 11 36 22 24 18 68 -7 78 -18 7 -18 -4 0 -30 18
-25 8 -43 -24 -46 -19 -2 -29 6 -47 39 -33 58 -37 102 -13 149 11 21 20 50 20
65 0 30 57 99 81 99 15 0 49 -34 49 -49 0 -5 -14 -24 -32 -42 -27 -27 -29 -31
-10 -25 21 7 21 5 12 -21 -9 -26 -9 -27 5 -9 8 11 15 30 15 42 0 13 4 25 9 28
5 3 9 34 9 68 0 52 -2 59 -11 43 -7 -11 -25 -21 -42 -23 -51 -6 -105 -75 -105
-136 0 -20 -7 -29 -27 -37 -16 -6 -37 -19 -49 -30 -18 -17 -23 -18 -33 -5 -8
10 -9 16 -1 21 5 3 10 11 10 17 0 7 -4 7 -12 1 -21 -16 -48 -23 -48 -13 0 6 6
10 14 10 7 0 19 7 26 15 15 18 0 20 -20 3 -8 -7 12 15 45 50 33 35 71 68 84
75 14 7 27 19 29 27 5 13 3 13 -11 1 -15 -12 -16 -10 -10 20 3 19 9 35 13 37
4 1 5 13 3 26 -7 33 33 73 87 90 25 8 37 14 28 15 -18 1 -23 12 -11 24 8 9 56
9 77 1z m1576 -104 c8 -35 0 -96 -11 -79 -5 8 -6 26 -3 41 3 15 0 37 -6 49
-10 17 -9 20 1 17 8 -3 16 -15 19 -28z m-914 -9 c-4 -5 0 -11 6 -14 10 -3 10
-7 2 -18 -7 -8 -14 -23 -16 -34 -3 -11 -5 1 -4 27 1 27 5 48 9 48 5 0 6 -4 3
-9z m844 -36 c0 -8 9 -15 19 -15 19 0 35 -23 24 -34 -12 -12 -33 -6 -33 9 0 9
-11 21 -25 27 -19 8 -22 14 -13 20 19 12 28 10 28 -7z m-823 -57 c-10 -18 -15
-25 -12 -15 3 10 5 30 5 45 0 20 3 23 12 14 9 -9 8 -19 -5 -44z m923 7 c0 -14
1 -28 3 -31 1 -4 -18 -12 -43 -19 -25 -7 -52 -15 -61 -19 -13 -6 -20 1 -29 29
-14 43 -6 59 11 21 7 -14 19 -26 27 -26 24 0 82 23 82 33 0 4 -4 6 -9 3 -5 -4
-7 3 -4 14 7 28 23 25 23 -5z m-851 -81 c36 -58 49 -90 43 -100 -7 -12 -11
-10 -20 11 -7 15 -9 31 -6 37 4 7 2 8 -4 4 -12 -7 -45 47 -35 58 4 3 1 6 -5 6
-7 0 -11 3 -11 8 1 4 1 14 0 22 -1 13 -2 13 -11 0 -5 -8 -11 -12 -14 -9 -5 5
3 49 9 49 2 0 26 -38 54 -86z m781 56 c-19 -13 -30 -13 -30 0 0 6 10 10 23 10
18 0 19 -2 7 -10z m-816 -76 c36 -57 66 -115 66 -128 0 -14 -31 -46 -44 -46
-6 0 0 9 14 20 14 11 19 20 11 20 -8 0 -11 6 -7 16 3 9 2 12 -5 9 -5 -4 -8
-12 -6 -18 4 -12 -20 -36 -35 -37 -5 0 -8 8 -8 18 0 26 -39 84 -53 79 -11 -4
-57 52 -57 71 0 10 58 40 80 41 8 1 28 -20 44 -45z m673 24 c-3 -8 -6 -5 -6 6
-1 11 2 17 5 13 3 -3 4 -12 1 -19z m203 12 c0 -11 -42 -30 -66 -30 -26 0 -15
17 19 28 43 13 47 14 47 2z m30 0 c0 -5 -4 -10 -10 -10 -5 0 -10 5 -10 10 0 6
5 10 10 10 6 0 10 -4 10 -10z m-566 -26 c3 -8 2 -12 -4 -9 -6 3 -10 10 -10 16
0 14 7 11 14 -7z m276 -4 c0 -5 -2 -10 -4 -10 -3 0 -8 5 -11 10 -3 6 -1 10 4
10 6 0 11 -4 11 -10z m170 0 c0 -5 -4 -10 -10 -10 -5 0 -10 5 -10 10 0 6 5 10
10 10 6 0 10 -4 10 -10z m-170 -24 c0 -3 -4 -8 -10 -11 -5 -3 -10 -1 -10 4 0
6 5 11 10 11 6 0 10 -2 10 -4z m-217 -61 c-3 -9 -8 -14 -10 -11 -3 3 -2 9 2
15 9 16 15 13 8 -4z m-35 -26 c-6 -16 -12 -28 -15 -26 -7 7 8 57 18 57 4 0 3
-14 -3 -31z m-403 -9 c8 -16 15 -38 15 -50 0 -12 4 -19 9 -15 12 7 41 -33 40
-55 0 -8 -25 -27 -57 -42 l-57 -27 -17 22 c-10 12 -18 17 -18 11 0 -6 7 -17
15 -24 8 -7 15 -18 15 -24 -1 -11 -24 15 -42 48 -7 14 -7 17 2 11 9 -5 10 -1
6 16 -7 23 -6 23 8 5 8 -10 17 -23 19 -29 4 -12 57 4 95 29 18 12 21 18 12 29
-6 8 -17 12 -25 9 -16 -7 -26 9 -29 44 -1 15 -6 37 -10 50 -11 32 1 27 19 -8z
m163 -50 c-16 -61 -38 -46 -38 24 0 41 9 50 31 31 14 -13 15 -22 7 -55z
m-1082 -16 c-9 -8 -16 -22 -16 -29 0 -8 -5 -17 -11 -21 -13 -8 -6 24 19 78 16
35 17 36 20 13 2 -14 -4 -32 -12 -41z m-63 50 c10 -11 -5 -34 -23 -34 -9 0
-29 -10 -44 -21 -15 -12 -30 -19 -33 -15 -4 3 -1 6 6 6 8 0 10 8 6 23 -5 17
-4 19 5 7 9 -13 12 -13 24 3 7 9 19 17 27 17 11 0 11 2 -1 10 -12 8 -11 10 6
10 11 0 23 -3 27 -6z m27 -36 c-11 -24 -20 -52 -20 -63 0 -11 -8 -31 -17 -45
-13 -19 -14 -22 -2 -18 15 6 22 -22 21 -79 0 -15 4 -20 12 -16 8 5 8 3 0 -8
-5 -8 -9 -24 -8 -36 1 -24 -25 -40 -37 -22 -15 25 -33 209 -20 209 5 0 8 6 7
14 -1 11 72 106 81 106 1 0 -7 -19 -17 -42z m1459 28 c8 -10 9 -16 1 -21 -5
-3 -10 0 -10 9 0 8 -6 17 -12 19 -8 4 -9 6 -2 6 6 1 17 -5 23 -13z m-589 -56
c10 0 22 -9 25 -21 8 -25 -2 -39 -11 -15 -3 9 -12 16 -19 16 -15 0 -65 56 -65
73 0 7 12 -3 26 -20 14 -18 34 -33 44 -33z m306 33 c-10 -10 -19 5 -10 18 6
11 8 11 12 0 2 -7 1 -15 -2 -18z m-676 13 c0 -2 -15 -9 -32 -15 -30 -10 -31
-9 -14 4 18 14 46 20 46 11z m435 -6 c-3 -5 -11 -10 -16 -10 -6 0 -7 5 -4 10
3 6 11 10 16 10 6 0 7 -4 4 -10z m495 3 c0 -17 -19 -37 -27 -29 -4 5 -2 11 5
13 6 3 10 9 6 14 -3 5 0 9 5 9 6 0 11 -3 11 -7z m-605 -112 c-3 -42 4 -58 16
-40 6 9 7 2 3 -17 -6 -33 10 -55 20 -28 5 13 9 14 21 4 17 -14 20 -50 4 -50
-6 0 -8 9 -4 20 7 22 -10 28 -18 6 -3 -7 8 -29 23 -47 16 -19 29 -29 30 -24 0
6 -4 15 -9 20 -5 6 -5 19 -1 30 7 19 7 19 19 -3 9 -16 9 -27 1 -43 -15 -28 -4
-38 15 -13 17 23 19 15 5 -21 -9 -23 -8 -26 5 -21 9 3 14 2 12 -2 -2 -4 -7
-15 -11 -26 -5 -15 -9 -16 -21 -6 -9 8 -15 8 -15 2 0 -15 23 -21 43 -10 15 8
20 5 24 -11 3 -12 10 -21 17 -22 6 0 2 -4 -9 -9 -24 -10 -80 -2 -117 17 -29
14 -39 29 -14 20 8 -3 16 2 19 13 3 13 0 17 -9 13 -9 -3 -14 1 -14 12 0 9 -4
14 -9 11 -4 -3 -17 1 -27 10 -18 14 -18 15 2 5 29 -14 40 0 12 16 -13 7 -17
12 -9 13 11 0 11 3 1 15 -8 9 -8 15 -2 15 6 0 20 -12 31 -26 12 -15 21 -23 21
-18 -1 16 -26 43 -56 60 l-29 16 28 -6 c15 -4 27 -2 27 4 0 5 -11 10 -24 10
-13 0 -31 10 -40 23 l-17 22 6 -22 c10 -36 -3 -27 -20 13 -19 46 -19 68 0 84
8 7 15 17 15 22 0 6 -7 5 -15 -2 -23 -19 -18 4 5 25 11 10 20 25 20 34 0 9 10
1 23 -19 16 -22 23 -46 22 -69z m550 83 c-65 -48 -155 -103 -155 -95 0 6 8 15
18 21 15 10 15 10 -3 8 -12 -2 -19 2 -17 10 1 6 -3 12 -9 12 -6 0 -9 -7 -5
-15 3 -9 0 -15 -9 -15 -8 0 -15 5 -15 11 0 5 -4 8 -10 4 -5 -3 -7 -12 -3 -20
3 -9 -1 -15 -10 -15 -8 0 -14 9 -13 21 1 18 14 26 79 44 42 13 77 19 77 15 0
-4 17 1 37 11 44 22 66 24 38 3z m109 7 c3 -5 -1 -11 -9 -14 -9 -4 -12 -1 -8
9 6 16 10 17 17 5z m-543 -23 c6 -11 4 -18 -8 -22 -10 -4 -20 -1 -26 9 -5 9
-18 20 -30 25 -17 6 -14 8 16 6 24 -1 42 -8 48 -18z m211 0 c-7 -7 -12 -8 -12
-2 0 6 3 14 7 17 3 4 9 5 12 2 2 -3 -1 -11 -7 -17z m48 12 c0 -5 -4 -10 -10
-10 -5 0 -10 5 -10 10 0 6 5 10 10 10 6 0 10 -4 10 -10z m247 -5 c-4 -8 -2
-17 3 -20 6 -3 15 -16 21 -28 9 -16 5 -14 -17 8 -16 17 -26 32 -21 33 4 2 5 8
1 13 -3 5 0 9 6 9 7 0 10 -7 7 -15z m-1539 -30 c-6 -14 -18 -25 -26 -25 -12 0
-10 6 8 25 13 14 25 25 27 25 1 0 -3 -11 -9 -25z m1585 9 c-3 -9 0 -20 8 -25
9 -6 10 -9 2 -9 -6 0 -15 5 -18 10 -7 11 0 40 9 40 3 0 3 -7 -1 -16z m-98 -4
c-3 -5 -11 -10 -16 -10 -6 0 -7 5 -4 10 3 6 11 10 16 10 6 0 7 -4 4 -10z
m-287 -35 c17 4 23 2 19 -7 -2 -7 -11 -12 -18 -10 -9 1 -8 -3 3 -11 16 -13 16
-15 -8 -26 -22 -10 -28 -9 -39 6 -11 15 -11 19 1 26 11 6 8 13 -14 33 l-27 26
30 -22 c19 -14 37 -19 53 -15z m336 13 c9 -12 12 -25 8 -29 -4 -4 -74 -35
-157 -69 -82 -34 -156 -64 -162 -67 -7 -3 -13 2 -13 10 0 8 7 18 16 21 13 5
14 9 4 21 -11 13 -7 20 19 45 33 32 47 37 53 18 3 -8 23 -1 58 21 32 20 69 34
92 35 20 1 41 5 44 9 12 12 22 8 38 -15z m-475 -2 c-2 -2 -15 -7 -29 -10 l-25
-7 25 15 c21 12 42 14 29 2z m-926 -115 c12 -24 27 -45 32 -47 6 -3 11 -14 12
-25 2 -20 1 -20 -17 -4 -24 21 -57 99 -64 150 l-6 40 11 -35 c6 -19 20 -55 32
-79z m1961 40 c-3 -3 -19 9 -35 27 -16 18 -29 29 -29 25 1 -14 24 -38 60 -63
26 -18 31 -20 20 -5 -16 19 -14 19 33 -4 22 -12 27 -21 27 -53 0 -21 -4 -38
-10 -38 -5 0 -9 -3 -9 -7 1 -5 1 -15 0 -23 -1 -12 -4 -12 -15 3 -8 10 -20 15
-29 11 -8 -3 -18 -1 -22 5 -4 7 1 9 12 5 17 -5 17 -4 -1 8 -10 7 -37 25 -60
40 -22 15 -49 42 -59 60 l-19 33 29 -31 c47 -51 70 -62 30 -15 l-37 45 27 22
28 23 32 -32 c18 -17 30 -33 27 -36z m-2132 37 c-7 -7 -12 -8 -12 -2 0 6 3 14
7 17 3 4 9 5 12 2 2 -3 -1 -11 -7 -17z m1168 11 c0 -5 -4 -7 -10 -4 -5 3 -10
-1 -10 -9 0 -8 -16 -20 -35 -27 -19 -7 -35 -17 -35 -22 0 -4 -4 -5 -10 -2 -19
12 -10 25 38 49 53 28 62 30 62 15z m-1200 -43 c-6 -6 -10 -21 -10 -35 0 -15
-5 -33 -11 -41 -8 -11 -9 -7 -5 18 15 86 18 95 27 81 5 -8 4 -18 -1 -23z m816
22 c4 -7 3 -8 -4 -4 -7 4 -12 2 -12 -5 0 -7 -3 -10 -6 -6 -6 5 3 27 11 27 2 0
7 -5 11 -12z m429 -70 c15 -27 22 -48 17 -48 -6 0 -12 3 -15 8 -2 4 -2 1 -1
-5 2 -7 -10 -20 -26 -28 -23 -12 -30 -13 -31 -3 0 7 -4 3 -9 -9 -11 -27 -25
-30 -34 -7 -3 8 -2 12 4 9 17 -11 11 11 -15 49 -32 47 -32 55 1 19 l25 -28
-15 30 c-14 30 -13 31 14 47 21 12 31 13 40 4 8 -8 9 -6 4 9 -11 31 9 7 41
-47z m745 40 c0 -29 145 -148 179 -148 7 0 21 -5 32 -11 20 -10 20 -11 2 -24
-13 -10 -21 -11 -32 -2 -7 6 -2 -6 13 -27 27 -40 33 -66 17 -66 -5 0 -14 15
-21 33 -13 39 -34 68 -52 71 -7 2 -24 8 -38 13 -15 7 -32 7 -42 2 -22 -12 -28
-11 -28 3 0 6 -10 22 -22 35 -27 29 -76 30 -110 3 -32 -25 -58 -87 -51 -122 6
-30 78 -102 93 -93 6 3 10 1 10 -6 0 -6 -8 -9 -20 -6 -11 3 -20 2 -20 -2 0 -4
-7 -8 -15 -8 -12 0 -12 3 -2 15 10 13 9 14 -3 10 -8 -3 -14 -15 -13 -26 2 -17
-9 -24 -65 -44 -37 -12 -71 -23 -77 -24 -5 0 -26 -7 -45 -16 -40 -17 -49 -15
-30 7 7 8 17 12 24 8 6 -3 8 -3 4 1 -3 4 0 23 8 42 13 32 13 39 -5 79 -10 24
-28 48 -39 54 -62 33 -149 -9 -174 -84 -5 -17 -6 -16 -7 7 -1 14 -4 33 -7 41
-7 20 18 42 73 63 27 9 122 46 212 82 108 42 179 65 210 65 45 2 46 1 68 -43
12 -25 22 -39 23 -32 0 22 -38 89 -55 96 -19 7 -92 -10 -151 -35 -37 -15 -41
-16 -51 0 -10 14 -13 14 -32 -8 -11 -13 -21 -19 -21 -13 0 7 -4 12 -10 12 -5
0 -7 -8 -3 -17 7 -19 5 -18 -17 11 -14 18 -13 19 13 14 15 -3 27 -2 27 2 0 13
79 40 96 33 11 -4 15 -2 11 4 -8 13 87 61 121 62 12 1 22 -5 22 -11z m-906
-13 c3 -8 1 -15 -4 -15 -6 0 -10 7 -10 15 0 8 2 15 4 15 2 0 6 -7 10 -15z
m-1014 -65 c6 0 9 -4 5 -9 -3 -6 -1 -29 4 -52 9 -39 8 -41 -7 -26 -9 10 -16
32 -15 52 1 19 -3 35 -8 35 -5 0 -9 -4 -9 -10 0 -5 -4 -10 -10 -10 -9 0 -8 6
6 48 5 15 7 14 15 -5 4 -13 13 -23 19 -23z m2204 14 c18 -17 22 -39 6 -29 -11
7 -33 45 -26 45 2 0 12 -7 20 -16z m-2285 -69 c0 -5 -4 -3 -9 5 -5 8 -9 22 -9
30 0 16 17 -16 18 -35z m218 19 c6 -17 -37 -64 -58 -64 -27 0 -24 15 6 28 15
7 25 20 25 33 0 20 20 23 27 3z m1106 -29 c14 -25 21 -47 16 -51 -5 -3 -7 -9
-4 -14 3 -5 0 -12 -6 -16 -8 -4 -9 -3 -5 4 10 17 1 15 -44 -8 -22 -11 -40 -16
-40 -10 0 5 -5 10 -11 10 -5 0 -7 -6 -4 -12 4 -7 -10 4 -29 26 -20 21 -33 43
-30 48 5 8 113 67 126 68 3 0 18 -20 31 -45z m966 4 c-7 -4 -19 -4 -28 -1 -9
3 -11 7 -4 9 7 3 9 12 6 21 -5 14 -3 14 16 -2 15 -14 18 -22 10 -27z m-615 24
c4 -5 13 -8 19 -8 5 0 12 -5 14 -10 3 -10 -181 -85 -207 -85 -5 0 -28 -18 -49
-39 -45 -45 -76 -59 -84 -37 -4 9 -2 18 4 22 5 3 7 14 4 25 -5 14 0 22 17 29
52 22 263 108 269 109 3 1 9 -2 13 -6z m332 -18 c21 -32 11 -44 -16 -20 -45
40 -99 -17 -86 -90 8 -40 -5 -46 -28 -13 -20 28 -20 51 0 93 27 57 101 74 130
30z m-1951 6 c3 -5 1 -12 -5 -16 -5 -3 -10 1 -10 9 0 18 6 21 15 7z m863 -32
c-3 -8 -7 -3 -11 10 -4 17 -3 21 5 13 5 -5 8 -16 6 -23z m-658 -4 c7 -9 8 -15
2 -15 -5 0 -12 7 -16 15 -3 8 -4 15 -2 15 2 0 9 -7 16 -15z m1720 1 c6 -8 27
-20 46 -26 31 -11 35 -15 32 -43 -3 -30 -31 -47 -44 -26 -3 5 -10 7 -15 3 -5
-3 -6 -10 -3 -16 4 -7 2 -8 -4 -4 -6 4 -9 14 -6 24 5 15 4 15 -9 -1 -14 -17
-16 -17 -25 -2 -5 9 -13 15 -18 13 -17 -6 -16 59 1 76 20 20 29 20 45 2z m433
-29 c9 -8 17 -19 17 -24 0 -6 7 -16 15 -23 18 -15 20 -66 3 -76 -8 -5 -9 -2
-5 9 3 10 3 17 -1 17 -5 0 -16 16 -25 36 -10 20 -27 38 -37 41 -13 4 -20 14
-20 30 0 25 10 23 53 -10z m-2373 -45 c0 -4 -9 7 -20 23 -11 17 -20 35 -20 40
0 6 9 -5 20 -23 11 -18 20 -36 20 -40z m40 42 c0 -8 -4 -12 -10 -9 -5 3 -10
13 -10 21 0 8 5 12 10 9 6 -3 10 -13 10 -21z m2030 7 c23 -45 1 -135 -29 -117
-9 6 -8 13 5 27 26 29 1 23 -26 -6 -23 -25 -40 -32 -40 -17 0 4 10 12 22 17
33 15 46 59 24 84 -13 15 -14 20 -4 24 25 10 37 7 48 -12z m50 -20 c13 -24 13
-61 1 -61 -13 0 -17 8 -26 48 -7 36 8 44 25 13z m-2027 -16 c-6 -17 -29 -20
-38 -5 -3 6 1 10 9 10 9 0 16 5 16 11 0 5 4 8 10 4 5 -3 7 -12 3 -20z m2109 8
c20 -18 24 -48 8 -58 -5 -3 -10 2 -10 11 0 10 -10 28 -22 41 -25 27 -5 33 24
6z m91 -10 c25 -29 27 -76 2 -67 -8 4 -12 10 -9 15 3 6 -1 21 -10 34 -9 13
-16 27 -16 30 0 11 18 4 33 -12z m63 -18 c17 -26 16 -56 -3 -62 -8 -3 -11 3
-8 16 2 12 0 21 -4 21 -4 0 -13 11 -19 25 -16 34 11 35 34 0z m-1056 -207 c-7
-38 -15 -68 -20 -68 -4 0 -6 10 -4 23 4 21 4 21 -5 1 -7 -16 -16 -20 -40 -16
-28 4 -30 7 -25 36 l5 31 -15 -30 c-14 -28 -15 -23 -9 70 3 55 7 102 10 105 6
7 22 -23 17 -32 -3 -4 0 -8 7 -8 7 0 9 10 6 29 -5 22 -2 30 11 34 9 3 25 8 34
12 14 5 17 -1 21 -37 l4 -43 3 50 c4 46 4 44 7 -20 2 -38 -1 -100 -7 -137z
m315 178 c43 -43 45 -114 5 -136 -14 -7 -20 -7 -20 0 0 5 5 10 10 10 18 0 11
76 -7 92 -42 35 -82 27 -113 -24 l-20 -33 0 30 c1 74 93 113 145 61z m-1480
-14 c-3 -3 -11 0 -18 7 -9 10 -8 11 6 5 10 -3 15 -9 12 -12z m845 -22 c15 0
20 -6 20 -27 0 -21 -3 -24 -9 -13 -6 8 -7 18 -4 24 4 5 -3 7 -15 4 -12 -3 -23
-1 -25 6 -6 17 -37 -12 -37 -35 0 -11 -4 -19 -10 -19 -17 0 -11 25 10 48 17
18 18 22 5 22 -8 0 -15 5 -15 10 0 6 13 4 30 -5 16 -8 38 -15 50 -15z m67 24
c-3 -3 -12 -4 -19 -1 -8 3 -5 6 6 6 11 1 17 -2 13 -5z m109 -6 c4 -7 4 -10 -1
-6 -4 4 -14 3 -22 -4 -11 -8 -12 -7 -7 6 7 19 20 21 30 4z m754 -4 c0 -2 -7
-4 -15 -4 -8 0 -15 4 -15 10 0 5 7 7 15 4 8 -4 15 -8 15 -10z m-1834 -21 c-7
-7 -26 7 -26 19 0 6 6 6 15 -2 9 -7 13 -15 11 -17z m2612 -31 c-2 -9 -13 -16
-25 -17 -18 -1 -20 1 -12 17 6 10 7 29 4 41 -6 22 -6 21 15 -2 11 -13 20 -31
18 -39z m-1633 29 c-3 -6 -11 -8 -17 -5 -6 4 -8 3 -5 -3 3 -5 -4 -27 -17 -48
-13 -21 -26 -33 -30 -27 -3 6 1 15 10 20 11 6 17 21 16 40 0 24 4 32 21 34 27
5 31 2 22 -11z m543 -11 c13 -23 12 -29 -12 -65 -15 -22 -29 -41 -31 -43 -5
-5 -49 19 -57 32 -25 37 17 109 60 104 16 -2 32 -13 40 -28z m-1429 14 c17 -4
31 -11 31 -16 0 -6 -7 -7 -16 -4 -8 3 -12 2 -9 -4 3 -6 1 -10 -4 -10 -6 0 -11
5 -11 11 0 5 -4 7 -10 4 -5 -3 -10 0 -10 7 0 11 -2 10 -9 0 -7 -11 -9 -11 -14
2 -7 18 3 19 52 10z m910 -41 c-15 -39 -10 -41 10 -3 15 27 25 35 50 36 28 1
46 -14 21 -17 -5 -1 -15 -2 -22 -3 -6 0 -13 -8 -15 -16 -4 -13 -3 -13 6 0 6 8
11 11 11 5 0 -21 -16 -33 -48 -37 -18 -2 -37 -10 -42 -18 -8 -12 -10 -12 -10
-1 0 8 -6 11 -16 7 -10 -4 -14 -2 -11 6 2 7 10 12 16 11 6 -2 10 1 9 6 -2 6 6
23 17 40 22 34 39 22 24 -16z m278 23 c-4 -10 -1 -13 8 -9 8 3 12 9 9 14 -3 5
5 9 16 9 16 0 20 -5 16 -15 -3 -8 0 -15 6 -15 7 0 7 -4 -1 -13 -8 -10 -7 -17
1 -25 9 -9 6 -18 -11 -36 -13 -13 -18 -27 -13 -30 13 -8 4 -42 -15 -57 -12
-11 -13 -8 -8 14 5 17 3 27 -4 27 -6 0 -8 -7 -4 -17 4 -11 3 -14 -5 -9 -7 4
-12 15 -13 24 0 10 -3 12 -5 5 -3 -7 0 -21 6 -32 14 -27 -1 -27 -18 -1 -7 12
-10 35 -7 58 3 20 7 52 9 70 2 19 9 38 17 43 19 12 22 11 16 -5z m733 4 c0 -5
-2 -10 -4 -10 -3 0 -8 5 -11 10 -3 6 -1 10 4 10 6 0 11 -4 11 -10z m29 -16
c-8 -10 -43 -30 -78 -46 -35 -16 -61 -32 -58 -34 3 -3 15 -1 26 6 14 7 21 7
21 0 0 -5 5 -10 11 -10 5 0 8 4 5 8 -3 5 11 16 30 25 44 21 43 21 37 -4 -3
-12 -21 -30 -39 -41 -40 -24 -44 -31 -9 -18 25 10 25 8 -16 -70 -23 -44 -47
-80 -52 -80 -6 0 -26 -12 -46 -27 -52 -41 -81 -55 -74 -37 3 8 -1 14 -10 14
-8 0 -18 -6 -20 -12 -3 -7 -6 0 -6 15 -1 16 -5 37 -11 47 -7 13 -6 19 5 23 9
4 12 1 8 -10 -3 -8 0 -19 7 -23 19 -11 51 11 45 31 -3 9 2 22 12 30 14 12 16
12 8 0 -5 -8 -4 -12 1 -9 5 3 17 8 27 11 10 4 15 12 11 18 -4 8 -9 7 -16 -2
-8 -11 -9 -11 -5 1 2 8 11 15 19 14 8 -1 15 5 15 12 0 18 -1 17 -40 -2 -20
-11 -32 -13 -35 -6 -2 6 -11 9 -20 6 -15 -5 -15 -4 1 6 17 11 25 36 8 26 -5
-4 -7 2 -4 13 3 10 -1 22 -7 26 -7 4 7 16 37 30 53 26 43 34 -14 10 -20 -8
-38 -13 -41 -10 -3 2 8 9 24 15 16 6 42 18 58 26 36 18 36 18 36 -5 0 -14 6
-17 26 -13 14 2 31 13 37 23 14 23 29 25 20 3 -5 -15 -3 -15 24 0 17 8 33 23
37 32 4 9 9 14 13 11 3 -4 0 -14 -8 -23z m266 16 c0 -2 18 -5 75 -11 8 -1 17
-5 20 -9 19 -27 72 -81 76 -78 2 3 -7 17 -22 33 -26 28 -20 56 7 39 8 -4 20
-9 29 -10 38 -6 52 -12 100 -44 33 -24 58 -50 73 -80 12 -25 22 -47 22 -50 1
-3 4 -18 8 -34 8 -29 -10 -126 -24 -126 -3 0 -12 13 -18 28 -7 16 -35 51 -64
78 -40 38 -44 40 -16 9 49 -54 79 -106 114 -195 15 -41 44 -94 63 -118 26 -32
36 -55 39 -90 4 -41 1 -52 -26 -86 -35 -43 -40 -57 -13 -33 23 21 32 21 32 2
0 -9 9 -34 20 -56 12 -23 18 -48 15 -60 -8 -25 -64 -53 -153 -78 -93 -26 -112
-37 -118 -71 -5 -21 -15 -32 -37 -39 -39 -14 -39 -14 -26 7 8 13 9 25 2 36 -8
15 -11 15 -33 -4 -43 -37 -36 -20 9 20 54 50 44 51 -22 4 -39 -28 -52 -33 -58
-22 -5 7 -8 18 -8 23 0 6 3 4 6 -2 2 -7 9 -13 14 -13 7 0 7 6 0 17 -6 11 -6
24 1 36 12 23 45 57 50 52 2 -2 4 5 5 15 1 11 0 20 -2 20 -3 0 -29 -26 -60
-57 l-55 -57 -29 28 c-16 15 -31 24 -33 19 -3 -4 -3 -1 0 7 5 17 5 24 -3 65
-5 28 -4 28 5 -3 11 -34 23 -34 49 1 7 10 19 16 26 13 7 -2 16 -2 20 2 4 4 11
8 16 8 5 1 14 2 19 3 6 0 10 8 10 16 0 8 -4 15 -10 15 -5 0 -10 -5 -10 -12 0
-6 -3 -9 -6 -5 -4 3 -21 0 -39 -7 -22 -9 -37 -11 -46 -4 -11 8 -10 9 4 4 9 -3
17 -2 17 3 0 4 25 16 55 26 59 20 77 40 23 24 -57 -16 -82 -11 -99 20 -16 27
-16 28 2 24 10 -3 17 -8 15 -12 -3 -4 -1 -13 5 -21 7 -12 9 -11 9 5 0 24 -13
47 -26 44 -5 -1 -27 -1 -50 0 -32 1 -43 6 -51 23 -6 15 -12 18 -17 10 -4 -7
-2 -12 3 -12 6 0 11 -5 11 -10 0 -19 -25 -5 -37 20 -11 22 -12 18 -7 -30 3
-30 13 -63 21 -72 9 -10 11 -18 6 -18 -20 0 -36 31 -40 78 -4 54 -21 75 -78
97 l-40 15 35 -6 c19 -4 47 -15 63 -26 15 -11 27 -17 27 -13 0 3 8 2 17 -4 11
-6 24 -6 35 0 12 6 18 6 18 -1 0 -14 16 -13 32 3 11 11 32 15 41 7 8 -6 55 -4
50 3 -2 4 -12 7 -21 5 -10 -1 -23 1 -30 6 -7 4 -28 10 -45 13 -18 3 -34 8 -37
12 -8 11 -184 32 -217 25 -29 -6 -30 -5 -40 45 -9 46 -8 51 9 57 10 3 16 9 13
14 -3 4 2 10 10 14 21 8 19 -8 -5 -29 -11 -10 -20 -22 -20 -26 0 -9 27 -6 37
6 5 4 1 5 -7 0 -8 -5 -13 -6 -10 -2 3 3 10 6 15 7 6 1 16 6 23 12 28 24 19 0
-14 -35 -19 -20 -31 -37 -26 -37 5 0 16 9 23 21 8 11 21 21 29 22 24 4 58 26
40 27 -8 0 -28 16 -43 36 l-29 35 34 -6 c18 -3 40 -7 49 -9 10 -1 23 -7 30
-13 8 -6 22 -9 32 -8 20 4 22 -6 5 -23 -15 -15 -31 -16 -22 0 4 7 3 8 -4 4 -6
-4 -8 -14 -5 -22 4 -10 9 -12 16 -5 5 5 15 8 21 5 6 -2 25 7 41 21 26 21 27
24 10 25 -11 0 -49 11 -85 24 -79 29 -84 44 -40 122 35 59 30 58 115 38 20 -5
20 -5 1 10 -11 9 -33 16 -49 16 l-28 0 20 38 c11 20 32 75 47 122 37 118 37
117 81 114 21 -1 38 -3 38 -4z m-208 -12 c-18 -48 -18 -58 -3 -52 9 3 16 17
16 30 0 21 5 24 36 24 32 0 35 -2 28 -22 -3 -12 -8 -42 -10 -67 -6 -89 -110
-256 -248 -396 -53 -54 -58 -58 -22 -16 26 30 45 58 43 64 -4 14 -47 19 -47 6
0 -8 -5 -7 -15 1 -11 9 -13 16 -5 24 5 5 10 15 10 20 -1 6 -12 -2 -25 -19 -14
-16 -25 -25 -25 -18 0 6 4 14 9 17 5 3 7 15 4 26 -4 14 1 21 21 26 14 3 26 10
26 15 0 12 -7 11 -31 -1 -30 -17 -22 -6 23 30 32 26 38 29 26 11 -9 -13 -14
-29 -12 -36 3 -7 1 -16 -5 -20 -6 -3 -11 -11 -11 -16 0 -6 4 -7 10 -4 5 3 7 0
4 -8 -3 -8 3 -20 13 -28 16 -12 17 -12 6 2 -10 13 -8 22 12 49 33 44 32 53 -1
15 -18 -21 -24 -24 -19 -10 4 11 8 27 9 35 1 8 13 33 27 55 14 22 45 79 68
127 24 49 47 86 51 83 5 -3 14 11 20 30 6 19 14 35 17 35 3 0 3 -6 0 -12z
m-1097 -82 c0 -3 -4 -8 -10 -11 -5 -3 -10 -1 -10 4 0 6 5 11 10 11 6 0 10 -2
10 -4z m458 -28 c46 -22 48 -26 28 -53 -12 -17 -18 -18 -52 -7 -61 19 -68 25
-52 51 11 18 11 23 -2 32 -23 16 26 1 78 -23z m-84 -3 c-7 -16 -24 -21 -24 -6
0 8 7 13 27 20 1 1 0 -6 -3 -14z m-304 1 c0 -2 -7 -6 -15 -10 -8 -3 -15 -1
-15 4 0 6 7 10 15 10 8 0 15 -2 15 -4z m620 -1 c0 -3 -12 -10 -27 -16 -16 -6
-23 -13 -16 -16 7 -2 20 0 30 5 12 7 24 5 40 -5 37 -24 29 -49 -23 -72 -41
-19 -44 -22 -31 -36 18 -17 62 -21 52 -4 -4 6 -13 8 -21 5 -8 -3 -14 -1 -14 4
0 6 8 10 18 10 12 0 25 -14 37 -39 23 -51 15 -62 -32 -45 -45 16 -82 17 -103
4 -11 -7 -5 -10 23 -10 37 0 107 -23 107 -35 0 -4 -17 -5 -37 -3 -22 2 -38 -2
-41 -10 -3 -10 38 -18 71 -13 4 0 7 -8 7 -19 0 -36 -57 -22 -125 30 -33 25
-72 53 -85 62 -14 10 -18 15 -9 12 18 -6 52 22 44 36 -3 5 1 11 7 13 9 4 8 6
-2 6 -8 1 -28 -8 -45 -19 -19 -12 -38 -17 -55 -13 -29 6 -51 23 -31 23 8 0 10
7 6 21 -5 14 -3 20 7 18 20 -3 70 12 93 28 20 15 19 15 -2 8 -25 -7 -31 6 -10
23 7 6 44 20 82 31 78 22 85 23 85 16z m63 -12 c-5 -12 -2 -15 10 -10 14 5 16
2 11 -18 -4 -18 -1 -27 10 -31 9 -3 16 -11 16 -17 0 -8 -3 -8 -11 0 -6 6 -18
9 -25 6 -10 -4 -12 0 -8 12 4 9 -2 28 -13 44 -19 25 -20 27 -2 28 13 1 16 -3
12 -14z m-722 -19 c37 -15 40 -20 37 -46 -4 -23 0 -30 18 -34 13 -3 27 -3 32
0 5 3 15 -1 22 -9 18 -22 36 -18 58 10 11 14 22 25 25 25 9 0 2 -27 -16 -53
-9 -15 -17 -31 -17 -37 0 -7 -8 -9 -22 -4 -13 4 -61 18 -108 31 -74 20 -79 22
-35 19 l50 -5 -40 14 c-22 7 -48 14 -59 14 -14 1 -17 6 -12 27 5 17 3 23 -4
19 -5 -3 -10 -13 -10 -21 0 -8 -7 -14 -16 -14 -12 0 -15 6 -10 25 4 14 2 25
-3 25 -5 0 -12 -12 -14 -27 -4 -25 -4 -25 -6 6 -1 37 -7 36 104 15 49 -10 16
13 -35 24 -41 9 -42 10 -13 11 18 1 51 -6 74 -15z m399 -56 c0 -6 -13 -8 -32
-4 -37 7 -42 11 -34 25 8 12 66 -6 66 -21z m-301 -4 c-17 -21 -31 -17 -19 6 6
11 15 18 21 14 6 -4 6 -11 -2 -20z m59 -6 c-3 -7 -13 -15 -23 -16 -15 -4 -16
-2 -4 12 17 19 32 21 27 4z m72 8 c0 -3 -4 -8 -10 -11 -5 -3 -10 -1 -10 4 0 6
5 11 10 11 6 0 10 -2 10 -4z m148 -28 c-5 -15 -33 -22 -54 -14 -24 9 -6 26 27
26 20 0 29 -4 27 -12z m-148 -2 c0 -3 -4 -8 -10 -11 -5 -3 -10 -1 -10 4 0 6 5
11 10 11 6 0 10 -2 10 -4z m94 -28 c25 2 36 0 31 -7 -16 -28 -105 0 -105 32 0
6 8 1 18 -9 12 -14 28 -18 56 -16z m441 2 c-3 -5 -11 -10 -16 -10 -6 0 -7 5
-4 10 3 6 11 10 16 10 6 0 7 -4 4 -10z m-471 -42 c21 2 36 -1 36 -7 0 -6 -16
-11 -35 -11 -34 0 -75 30 -75 54 0 6 9 0 20 -14 15 -19 26 -24 54 -22z m214
18 c-7 -8 -15 -12 -17 -11 -5 6 10 25 20 25 5 0 4 -6 -3 -14z m-565 -31 c-3
-9 -8 -14 -10 -11 -3 3 -2 9 2 15 9 16 15 13 8 -4z m106 0 c2 -3 -1 -11 -7
-17 -15 -15 -16 -38 -2 -38 6 0 10 6 10 13 0 22 20 34 45 29 15 -3 22 -9 18
-16 -10 -16 -10 -40 1 -48 11 -7 -43 -68 -61 -68 -7 0 -11 -6 -9 -12 1 -7 1
-10 -1 -5 -8 13 -23 8 -23 -8 0 -8 -5 -15 -11 -15 -5 0 -7 5 -3 12 4 7 3 8 -4
4 -7 -4 -12 -14 -12 -22 0 -9 -10 -14 -27 -14 -21 0 -24 3 -14 9 12 8 13 12 1
25 -7 9 -10 19 -6 23 3 3 6 1 6 -6 0 -16 58 -5 77 15 21 20 15 26 -10 9 -30
-19 -43 -8 -17 14 15 12 17 20 10 31 -8 13 -10 12 -10 -2 0 -10 -5 -18 -11
-18 -6 0 -8 9 -3 23 9 31 11 32 31 16 15 -12 16 -12 8 1 -5 8 -8 25 -6 38 2
15 -5 25 -21 32 -20 9 -18 10 11 5 19 -3 37 -7 40 -10z m116 -6 c5 -5 -6 -4
-25 2 -45 15 -54 24 -15 15 17 -4 34 -12 40 -17z m-190 2 c3 -5 2 -12 -3 -15
-5 -3 -9 1 -9 9 0 17 3 19 12 6z m257 -7 c17 -9 39 -14 49 -11 11 3 21 1 24
-3 3 -5 -8 -11 -25 -15 -22 -5 -38 -1 -60 15 -46 33 -40 41 12 14z m1523 -4
c-10 -11 -20 -18 -23 -15 -7 6 18 35 31 35 5 0 2 -9 -8 -20z m-1748 -12 c-3
-8 -6 -5 -6 6 -1 11 2 17 5 13 3 -3 4 -12 1 -19z m244 -30 c16 -1 29 -5 29
-10 0 -13 -74 -10 -88 4 -19 19 -14 30 9 18 11 -6 33 -12 50 -12z m1502 1 c-6
-6 -9 -18 -6 -25 3 -8 0 -14 -7 -14 -6 0 -8 5 -5 10 3 6 -2 10 -11 10 -16 0
-16 1 2 15 22 17 43 20 27 4z m-1578 -16 c7 -10 27 -17 49 -17 45 -1 48 -16 3
-16 -33 0 -77 23 -77 41 0 14 11 11 25 -8z m-209 -30 c-11 -11 -17 4 -9 23 7
18 8 18 11 1 2 -10 1 -21 -2 -24z m445 -4 c44 -23 78 -44 75 -46 -2 -2 -42 16
-87 41 -105 57 -95 61 12 5z m388 34 c0 -5 -4 -17 -9 -28 -8 -18 -9 -17 -9 8
-1 15 4 27 9 27 6 0 10 -3 9 -7z m-919 -24 c0 -11 -4 -18 -10 -14 -5 3 -7 12
-3 20 7 21 13 19 13 -6z m300 -23 c14 -3 34 -5 45 -6 l20 -1 -20 -15 c-34 -26
-95 3 -95 45 0 12 2 12 13 -2 6 -9 23 -19 37 -21z m555 25 c3 -5 1 -12 -5 -16
-5 -3 -10 1 -10 9 0 18 6 21 15 7z m-92 -39 c10 -9 17 -11 17 -4 0 6 7 9 17 5
13 -5 12 -8 -7 -15 -19 -7 -29 -4 -49 18 -26 27 -11 24 22 -4z m-523 0 c0 -12
46 -32 71 -32 11 0 17 -4 14 -10 -10 -17 -51 -11 -79 11 -26 21 -34 39 -16 39
6 0 10 -4 10 -8z m747 -4 c3 6 9 12 14 12 5 0 4 -9 -3 -19 -9 -15 -16 -17 -30
-10 -12 7 -18 6 -18 -1 0 -6 -4 -8 -10 -5 -6 4 -5 11 3 20 9 10 15 10 26 1 11
-8 15 -8 18 2z m-997 -33 c7 -9 8 -15 2 -15 -5 0 -12 7 -16 15 -3 8 -4 15 -2
15 2 0 9 -7 16 -15z m237 -5 c14 -11 39 -20 54 -20 16 0 29 -4 29 -10 0 -22
-60 -9 -92 20 -37 33 -30 41 9 10z m697 -6 c3 -8 2 -12 -4 -9 -6 3 -10 10 -10
16 0 14 7 11 14 -7z m346 1 c-7 -8 -18 -15 -24 -15 -6 0 -2 7 8 15 25 19 32
19 16 0z m-1080 -14 c0 -11 69 -36 88 -33 6 2 12 -1 12 -6 0 -15 -47 -20 -71
-8 -26 13 -57 56 -40 56 6 0 11 -4 11 -9z m17 -73 c2 1 15 2 30 2 20 0 24 -3
16 -11 -17 -17 -81 -2 -93 21 -19 35 -10 43 17 14 15 -16 28 -28 30 -26z m783
0 c0 -18 -2 -20 -9 -8 -6 8 -7 18 -5 22 9 14 14 9 14 -14z m-833 -8 c14 -11
39 -20 56 -20 25 0 28 -2 17 -15 -19 -22 -58 -18 -85 10 -42 41 -32 60 12 25z
m877 5 c3 -8 1 -15 -4 -15 -6 0 -10 7 -10 15 0 8 2 15 4 15 2 0 6 -7 10 -15z
m-851 -65 c18 0 27 -4 25 -12 -5 -14 -76 -12 -94 3 -6 5 -11 20 -11 33 l0 24
26 -24 c15 -14 38 -24 54 -24z m867 -16 c0 -21 -17 -17 -23 5 -3 14 -1 18 9
14 8 -3 14 -11 14 -19z m233 19 c-7 -2 -19 -2 -25 0 -7 3 -2 5 12 5 14 0 19
-2 13 -5z m-1179 -35 c6 -4 28 -8 49 -8 23 0 36 -4 32 -10 -3 -5 -22 -10 -41
-10 -37 0 -80 33 -68 52 6 9 9 8 12 -2 3 -8 10 -18 16 -22z m985 -1 c0 -21 -1
-21 -9 -2 -12 28 -12 37 0 30 6 -3 10 -16 9 -28z m-1006 -47 c-6 -6 -33 30
-33 44 0 6 9 0 20 -14 10 -14 16 -27 13 -30z m23 -20 c21 0 33 -4 29 -10 -15
-25 -90 0 -99 32 -5 20 -4 20 15 -1 13 -14 32 -21 55 -21z m59 20 c-3 -5 -16
-10 -28 -9 -21 0 -21 1 -2 9 28 12 37 12 30 0z m-105 -50 c16 -7 36 -10 45 -6
8 3 15 1 15 -3 0 -14 -23 -19 -53 -14 -31 6 -60 40 -49 57 4 7 8 5 10 -6 2 -9
16 -21 32 -28z m1135 10 c-6 -10 -45 -1 -45 10 0 4 11 5 25 2 14 -2 23 -8 20
-12z m85 8 c0 6 5 12 10 12 6 0 5 -8 -2 -19 -14 -22 -28 -18 -28 7 0 15 2 15
10 2 6 -10 10 -11 10 -2z m44 -4 c3 -8 2 -12 -4 -9 -6 3 -10 10 -10 16 0 14 7
11 14 -7z m46 -21 c0 5 5 5 11 1 8 -4 7 -9 -2 -15 -25 -16 -36 -9 -36 22 0 31
0 31 13 7 7 -12 13 -19 14 -15z m-1335 -33 c8 0 16 -4 19 -9 4 -5 -5 -6 -21
-2 -17 4 -29 15 -31 27 -3 18 -2 18 8 2 6 -10 17 -18 25 -18z m1280 20 c-3 -5
-11 -10 -16 -10 -6 0 -7 5 -4 10 3 6 11 10 16 10 6 0 7 -4 4 -10z m15 -68 c0
-15 -2 -15 -10 -2 -13 20 -13 33 0 25 6 -3 10 -14 10 -23z m-1287 1 c-7 -2
-19 -2 -25 0 -7 3 -2 5 12 5 14 0 19 -2 13 -5z m1204 -25 c-3 -8 -6 -5 -6 6
-1 11 2 17 5 13 3 -3 4 -12 1 -19z m86 -67 c10 -11 9 -13 -3 -9 -10 3 -15 19
-16 44 -1 29 -1 32 3 9 3 -16 10 -36 16 -44z m14 37 c-3 -8 -6 -5 -6 6 -1 11
2 17 5 13 3 -3 4 -12 1 -19z m601 -74 c2 -15 -7 -25 -35 -38 -63 -30 -115 -47
-164 -53 -43 -5 -46 -4 -44 19 1 20 15 28 106 59 117 41 133 43 137 13z
m-1802 -73 c-1 -51 -16 -61 -16 -11 0 26 8 60 15 60 1 0 2 -22 1 -49z m1814
15 c0 -17 -10 -31 -33 -45 -42 -26 -157 -57 -180 -48 -29 11 -19 25 17 23 19
-1 33 1 30 3 -4 4 144 88 159 90 4 1 7 -10 7 -23z m-410 -16 c-11 -20 -40 -28
-40 -12 0 7 32 27 48 31 1 1 -2 -8 -8 -19z m-1309 -17 c13 -16 12 -17 -3 -4
-17 13 -22 21 -14 21 2 0 10 -8 17 -17z m-26 -3 c8 -13 -15 -13 -35 0 -12 8
-11 10 7 10 12 0 25 -4 28 -10z m-266 -30 c12 0 19 -4 16 -10 -14 -22 -75 5
-75 33 0 6 8 3 18 -6 10 -10 29 -17 41 -17z m1628 -27 c-3 -10 -5 -2 -5 17 0
19 2 27 5 18 2 -10 2 -26 0 -35z m-30 0 c-3 -10 -5 -4 -5 12 0 17 2 24 5 18 2
-7 2 -21 0 -30z m-28 -38 c0 -38 -3 -65 -9 -65 -6 0 -9 24 -6 63 5 71 5 67 10
67 2 0 4 -29 5 -65z m-1199 35 c11 -7 4 -9 -24 -5 -21 2 -41 7 -44 10 -10 9
53 5 68 -5z m-124 -127 c-6 -7 -56 96 -56 115 0 9 14 -12 30 -47 17 -35 29
-66 26 -68z m1778 97 c-17 -15 -154 -63 -161 -56 -4 4 4 10 17 13 14 4 52 21
85 38 33 17 62 27 64 22 2 -5 -1 -12 -5 -17z m-1681 -23 c9 -4 17 -11 17 -16
0 -6 -7 -7 -17 -4 -12 5 -14 3 -7 -8 4 -8 7 -22 6 -31 -5 -28 16 -57 36 -51
18 4 39 -23 27 -35 -3 -3 -5 0 -5 8 0 10 -3 10 -15 0 -8 -7 -15 -8 -15 -3 0 5
-18 19 -40 32 -22 12 -40 24 -40 26 0 2 -3 12 -6 22 -3 11 1 8 11 -7 16 -24
16 -24 12 -2 -5 23 8 31 16 10 3 -8 6 -6 6 5 1 9 -5 17 -13 17 -8 0 -18 4 -21
10 -4 6 1 7 11 3 15 -6 15 -2 -4 24 -28 40 -28 52 1 26 12 -11 30 -23 40 -26z
m-68 13 c10 -11 16 -20 13 -20 -3 0 -13 9 -23 20 -10 11 -16 20 -13 20 3 0 13
-9 23 -20z m1325 -25 c0 -25 -4 -45 -10 -45 -11 0 -14 73 -3 83 11 12 13 8 13
-38z m30 -6 c0 -31 -4 -48 -10 -44 -17 11 -12 95 7 95 2 0 3 -23 3 -51z m29
-6 c0 -32 -3 -42 -8 -29 -7 18 -3 76 5 76 2 0 4 -21 3 -47z m31 -37 c-7 -7
-10 4 -9 30 1 39 1 39 10 9 5 -18 5 -33 -1 -39z m-1620 44 c-8 -5 -26 -9 -40
-9 -23 1 -23 2 5 9 43 11 52 11 35 0z m35 -19 c-3 -6 -16 -11 -28 -11 -21 0
-21 1 3 13 27 15 36 14 25 -2z m27 -13 c-7 -7 -12 -8 -12 -2 0 14 12 26 19 19
2 -3 -1 -11 -7 -17z m1718 11 c0 -5 -13 -9 -30 -9 -16 0 -30 3 -30 8 0 4 14 8
30 8 17 1 30 -2 30 -7z m-344 -10 c3 -6 1 -16 -5 -22 -9 -9 -11 -7 -6 8 7 20
6 20 -9 1 -13 -16 -16 -16 -16 -5 0 27 23 39 36 18z m-961 -28 c23 -1 26 -4
15 -11 -8 -5 -12 -11 -9 -14 11 -11 65 -9 89 3 23 12 23 11 -4 -13 -29 -26
-74 -37 -60 -14 5 8 2 9 -12 3 -31 -14 -137 -12 -142 3 -2 7 0 12 5 11 4 -1
29 -1 56 0 63 1 61 21 -2 21 -28 0 -52 4 -55 9 -3 5 16 7 42 6 26 -2 61 -4 77
-4z m929 -47 c3 -16 9 -42 16 -59 11 -28 11 -29 -9 -11 -14 12 -19 31 -19 63
0 49 6 53 12 7z m-1229 16 c3 -5 1 -10 -4 -10 -6 0 -11 5 -11 10 0 6 2 10 4
10 3 0 8 -4 11 -10z m42 -30 c-6 -27 -4 -30 33 -41 32 -10 43 -9 56 2 16 13
16 12 6 -8 -9 -16 -9 -23 1 -26 6 -3 -1 -6 -16 -6 -15 -1 -39 -8 -52 -17 -25
-17 -55 -13 -55 6 0 6 4 8 10 5 6 -4 7 1 4 12 -5 16 -4 16 10 -1 9 -11 16 -14
16 -8 0 7 12 12 28 13 24 1 23 2 -10 11 -21 6 -38 15 -38 21 -1 24 -30 -28
-30 -52 0 -18 -3 -22 -11 -14 -8 8 -4 27 17 72 16 33 31 61 33 61 2 0 1 -13
-2 -30z m53 -5 c0 -8 8 -16 18 -18 9 -3 3 -5 -15 -6 -35 -1 -46 9 -37 32 7 18
34 11 34 -8z m-105 5 c3 -5 1 -10 -4 -10 -6 0 -11 5 -11 10 0 6 2 10 4 10 3 0
8 -4 11 -10z m507 -23 c12 -19 9 -66 -12 -166 -11 -52 -20 -107 -20 -122 0
-15 -10 -40 -23 -55 -19 -22 -31 -26 -77 -27 -90 -2 -211 13 -203 26 4 6 0 8
-10 4 -24 -9 -47 2 -47 22 1 14 2 14 11 -1 5 -10 15 -18 20 -18 6 0 8 4 5 9
-10 16 17 18 89 9 70 -9 159 -4 182 10 7 5 -30 6 -82 4 -113 -5 -172 3 -156
22 6 7 8 16 4 19 -3 4 -2 7 3 7 6 0 14 -4 20 -9 22 -22 166 -19 227 4 14 6 16
3 11 -11 -5 -13 -4 -16 3 -9 14 13 34 115 36 184 l2 54 -138 1 c-159 2 -151 7
-160 -94 -6 -75 -33 -170 -48 -170 -6 0 -7 5 -3 12 5 8 2 9 -9 5 -10 -3 -17
-2 -17 3 0 6 7 10 15 10 8 0 15 5 15 11 0 5 -4 7 -10 4 -13 -8 -13 -4 6 68 9
34 19 88 22 121 6 50 11 62 31 73 34 16 303 16 313 0z m-522 -6 c0 -6 -4 -13
-10 -16 -5 -3 -10 1 -10 9 0 9 5 16 10 16 6 0 10 -4 10 -9z m1271 -56 c3 2 6
-6 6 -18 2 -17 0 -19 -8 -7 -8 12 -10 11 -8 -5 3 -36 -1 -68 -7 -62 -3 3 -7
31 -7 61 -2 43 1 53 9 41 6 -8 13 -13 15 -10z m-773 -17 c-4 -28 -31 -36 -129
-37 -103 -1 -139 7 -139 30 0 11 4 19 10 19 5 0 7 -7 4 -15 -4 -9 0 -15 10
-15 9 0 16 5 16 10 0 6 36 10 88 10 48 0 94 5 102 10 26 17 42 12 38 -12z
m-374 -90 c-8 -40 -14 -77 -14 -82 0 -5 -3 -7 -6 -3 -8 8 17 157 26 157 4 0 1
-33 -6 -72z m366 28 c0 -20 -7 -25 -44 -35 -55 -14 -185 -14 -206 -1 -12 8 -9
10 13 10 16 0 26 4 22 10 -4 6 19 10 62 11 54 0 110 11 151 28 1 1 2 -10 2
-23z m-413 -43 l-6 -58 14 45 c12 37 14 39 10 11 -3 -18 -5 -40 -5 -47 0 -8
-9 -14 -21 -14 -14 0 -19 5 -16 14 3 7 9 34 12 60 10 65 18 57 12 -11z m-24
10 c-6 -43 -22 -79 -23 -53 0 19 19 90 25 90 2 0 1 -17 -2 -37z m1237 17 c0
-5 -2 -10 -4 -10 -3 0 -8 5 -11 10 -3 6 -1 10 4 10 6 0 11 -4 11 -10z m-9 -27
c13 -16 12 -17 -3 -4 -10 7 -18 15 -18 17 0 8 8 3 21 -13z m-801 -15 c0 -7 -4
-18 -8 -24 -8 -12 -118 -34 -173 -34 -37 0 -89 19 -89 33 0 5 5 5 12 1 8 -5 9
-2 5 9 -5 14 -2 15 21 6 39 -15 145 -12 184 5 42 18 48 19 48 4z m788 0 c17
-17 15 -41 -3 -34 -8 3 -16 0 -16 -7 -1 -7 -2 -18 -3 -26 0 -8 -8 -16 -16 -18
-9 -3 -11 -1 -5 4 6 4 11 19 11 33 3 54 4 60 12 60 4 0 13 -5 20 -12z m-1247
-48 c24 -11 54 -20 67 -20 19 0 22 -4 17 -21 -4 -11 -4 -30 -1 -42 10 -40 52
-54 183 -61 133 -7 165 0 197 46 26 36 18 11 -23 -81 -35 -78 -99 -268 -116
-345 -9 -40 -55 -83 -100 -92 -40 -7 -159 16 -229 44 -56 23 -126 70 -126 84
0 6 12 1 27 -13 20 -18 25 -20 20 -6 -4 9 -2 17 4 17 6 0 7 5 4 10 -3 6 0 10
7 10 7 0 -1 12 -19 25 -21 17 -30 31 -27 43 3 9 8 23 10 31 3 10 10 10 32 -4
l27 -18 -23 25 c-23 25 -23 26 -7 87 8 33 16 80 18 103 1 24 6 46 11 49 5 4 2
20 -6 36 l-14 29 54 -19 c76 -25 89 -16 15 12 -48 18 -63 28 -68 48 -5 21 5
41 21 43 1 0 21 -9 45 -20z m1249 -15 c0 -8 -2 -15 -4 -15 -2 0 -6 7 -10 15
-3 8 -1 15 4 15 6 0 10 -7 10 -15z m-17 -45 c3 6 4 5 3 -2 -2 -7 -11 -12 -21
-10 -10 2 -14 -1 -10 -7 3 -6 1 -11 -4 -11 -13 0 -13 3 -5 24 5 12 10 14 19 6
9 -8 15 -8 18 0z m-1319 -50 c4 -31 3 -40 -4 -30 -5 8 -10 30 -10 49 0 45 6
37 14 -19z m1298 -18 c-6 -16 -7 -15 -10 1 -2 9 -8 14 -14 11 -7 -4 -8 -2 -4
4 11 17 36 3 28 -16z m-28 -42 c-5 -5 -10 3 -11 18 -1 22 0 24 9 8 6 -10 6
-22 2 -26z m-1277 -82 c-3 -7 -5 -2 -5 12 0 14 2 19 5 13 2 -7 2 -19 0 -25z
m1613 -14 c-22 -13 -22 -15 -4 -11 18 4 23 -3 33 -44 14 -55 63 -158 115 -244
72 -117 69 -172 -11 -207 -69 -30 -112 -27 -168 13 -74 53 -350 373 -338 392
3 5 9 4 13 -3 5 -8 10 -9 14 -2 3 6 2 13 -4 17 -13 8 -12 16 5 38 13 18 17 17
86 -18 39 -20 79 -34 88 -32 10 3 4 7 -16 12 -17 4 -42 18 -55 32 l-23 25 38
-22 c30 -18 46 -21 82 -16 55 9 69 26 21 26 -24 0 -38 6 -45 19 -9 17 -5 18
52 19 34 1 76 6 92 11 44 14 53 12 25 -5z m-1616 -206 c-3 -5 -12 -4 -20 3 -7
6 -11 15 -8 21 3 5 12 4 20 -3 7 -6 11 -15 8 -21z m6 -144 c0 -2 -9 0 -20 6
-11 6 -20 13 -20 16 0 2 9 0 20 -6 11 -6 20 -13 20 -16z m258 -29 c18 2 37 7
42 10 6 4 9 -3 7 -15 -2 -12 -10 -26 -18 -31 -9 -6 -10 -9 -2 -9 15 0 29 -50
43 -160 6 -47 20 -111 31 -143 16 -49 17 -64 8 -102 -13 -53 -30 -70 -87 -85
-51 -13 -130 0 -179 29 -59 37 -101 112 -123 221 -5 25 -12 56 -15 70 -3 14
-7 49 -10 78 -4 48 -2 52 15 47 15 -5 18 -1 17 15 -1 11 -5 20 -9 20 -16 0
-23 -5 -20 -15 2 -5 -2 -4 -10 3 -11 11 -10 14 1 21 16 10 46 6 88 -10 16 -6
40 -12 55 -13 23 -1 27 2 22 19 -6 19 -5 19 8 2 13 -17 15 -17 27 -3 8 9 29
16 50 16 26 0 32 3 21 9 -8 6 -18 7 -22 5 -12 -8 -9 11 4 24 7 7 14 8 18 2 3
-5 20 -7 38 -5z m1257 -94 c-3 -2 0 -10 6 -18 9 -10 7 -13 -9 -13 -24 0 -47
34 -38 55 3 8 1 17 -4 20 -5 3 -19 20 -30 38 -13 18 0 9 29 -23 27 -30 48 -56
46 -59z m-1342 82 c-7 -2 -21 -2 -30 0 -10 3 -4 5 12 5 17 0 24 -2 18 -5z
m-249 -98 c-4 -8 -8 -15 -10 -15 -2 0 -4 7 -4 15 0 8 4 15 10 15 5 0 7 -7 4
-15z m13 -82 c-3 -10 -5 -4 -5 12 0 17 2 24 5 18 2 -7 2 -21 0 -30z m13 -33
c0 -5 -4 -10 -10 -10 -5 0 -10 5 -10 10 0 6 5 10 10 10 6 0 10 -4 10 -10z"/>
<path d="M5337 5066 c-4 -10 -1 -13 9 -9 15 6 19 23 5 23 -5 0 -11 -7 -14 -14z"/>
<path d="M4678 4983 c7 -3 16 -2 19 1 4 3 -2 6 -13 5 -11 0 -14 -3 -6 -6z"/>
<path d="M3650 4705 c0 -8 5 -15 10 -15 6 0 10 7 10 15 0 8 -4 15 -10 15 -5 0
-10 -7 -10 -15z"/>
<path d="M3901 4701 c-15 -12 -20 -21 -13 -25 14 -8 64 23 56 35 -8 13 -16 11
-43 -10z"/>
<path d="M5361 4644 c0 -11 3 -14 6 -6 3 7 2 16 -1 19 -3 4 -6 -2 -5 -13z"/>
<path d="M4590 4700 c0 -5 5 -10 11 -10 5 0 7 5 4 10 -3 6 -8 10 -11 10 -2 0
-4 -4 -4 -10z"/>
<path d="M4080 4640 c-13 -8 -12 -10 3 -10 9 0 17 5 17 10 0 12 -1 12 -20 0z"/>
<path d="M4272 4480 c-51 -23 -105 -60 -98 -67 2 -3 15 2 27 11 13 9 32 13 46
10 13 -4 23 -2 23 5 0 6 -8 8 -17 5 -10 -3 7 8 37 25 61 34 49 41 -18 11z"/>
<path d="M4226 4195 c-9 -26 -7 -32 5 -12 6 10 9 21 6 23 -2 3 -7 -2 -11 -11z"/>
<path d="M4610 4072 c-25 -10 -45 -24 -45 -32 0 -17 12 -16 73 7 23 9 41 21
39 26 -5 17 -19 17 -67 -1z m55 0 c-16 -15 -95 -42 -95 -34 0 4 19 15 43 24
48 19 66 22 52 10z"/>
<path d="M4645 4035 c-25 -12 -26 -14 -5 -9 14 4 31 9 39 12 10 4 12 1 6 -8
-5 -9 -4 -11 4 -6 11 7 6 26 -7 26 -4 -1 -20 -7 -37 -15z"/>
<path d="M4584 4009 c-13 -22 12 -26 51 -8 22 11 32 17 22 14 -51 -14 -72 -17
-57 -6 9 7 10 11 3 11 -6 0 -15 -5 -19 -11z"/>
<path d="M3914 4452 c28 -28 52 -50 54 -47 7 7 -16 32 -62 67 -41 31 -41 31 8
-20z"/>
<path d="M4050 4151 c0 -5 5 -13 10 -16 6 -3 10 -2 10 4 0 5 -4 13 -10 16 -5
3 -10 2 -10 -4z"/>
<path d="M4892 4413 c-35 -14 -61 -27 -59 -29 5 -5 104 31 127 46 25 16 -1 10
-68 -17z"/>
<path d="M3665 4350 c-3 -5 -1 -10 4 -10 6 0 11 5 11 10 0 6 -2 10 -4 10 -3 0
-8 -4 -11 -10z"/>
<path d="M3681 4291 c-13 -3 -32 -18 -42 -31 -19 -26 -39 -102 -23 -87 9 9 10
13 13 41 0 8 10 24 22 37 19 23 20 23 10 2 -6 -12 -11 -30 -11 -40 0 -10 9 1
19 23 23 51 35 59 55 38 24 -23 20 -71 -9 -99 -13 -14 -21 -25 -16 -25 41 0
67 95 36 130 -10 11 -21 20 -24 19 -3 -1 -17 -4 -30 -8z"/>
<path d="M3563 4059 c-35 -10 -38 -15 -23 -39 8 -13 10 -12 10 3 0 9 6 17 14
17 7 0 19 7 26 15 7 8 11 15 9 14 -2 0 -19 -5 -36 -10z"/>
<path d="M3791 3954 c0 -11 3 -14 6 -6 3 7 2 16 -1 19 -3 4 -6 -2 -5 -13z"/>
<path d="M3553 3943 c-3 -10 -7 -20 -9 -23 -1 -3 2 -12 8 -20 8 -12 9 -12 4 3
-8 26 1 21 19 -10 15 -27 16 -27 9 -3 -3 14 -11 30 -16 37 -5 7 -7 17 -3 23 3
5 4 10 0 10 -3 0 -8 -8 -12 -17z"/>
<path d="M3655 3940 c-16 -11 -24 -20 -16 -20 11 0 10 -5 -5 -22 -12 -16 -11
-15 6 2 14 14 34 33 45 42 27 24 7 22 -30 -2z"/>
<path d="M3710 3770 c0 -5 4 -10 9 -10 6 0 13 5 16 10 3 6 -1 10 -9 10 -9 0
-16 -4 -16 -10z"/>
<path d="M3600 3756 c0 -8 5 -18 10 -21 6 -3 10 1 10 9 0 8 -4 18 -10 21 -5 3
-10 -1 -10 -9z"/>
<path d="M3824 3755 c-3 -8 -4 -20 -2 -27 3 -7 7 -1 10 15 6 29 1 36 -8 12z"/>
<path d="M3540 3735 c0 -5 5 -17 10 -25 5 -8 10 -10 10 -5 0 6 -5 17 -10 25
-5 8 -10 11 -10 5z"/>
<path d="M3776 3722 c-6 -10 -2 -39 6 -48 4 -3 11 3 16 13 7 13 6 22 -4 30 -7
7 -15 9 -18 5z"/>
<path d="M3584 3643 c4 -7 2 -13 -4 -13 -6 0 -8 -5 -4 -11 4 -8 9 -8 17 0 8 8
7 14 -2 24 -11 10 -13 10 -7 0z"/>
<path d="M4466 4007 c3 -10 9 -15 12 -12 3 3 0 11 -7 18 -10 9 -11 8 -5 -6z"/>
<path d="M4336 4074 c-10 -14 -16 -32 -14 -39 2 -8 11 3 20 25 19 46 17 51 -6
14z"/>
<path d="M4410 3955 c-7 -9 -11 -17 -9 -20 3 -2 10 5 17 15 14 24 10 26 -8 5z"/>
<path d="M4197 3826 c-4 -10 -1 -13 9 -9 15 6 19 23 5 23 -5 0 -11 -7 -14 -14z"/>
<path d="M4160 3778 c0 -18 20 -47 20 -30 0 6 8 12 18 12 15 1 15 2 -2 15 -24
18 -36 19 -36 3z"/>
<path d="M4325 3650 c3 -5 8 -10 11 -10 2 0 4 5 4 10 0 6 -5 10 -11 10 -5 0
-7 -4 -4 -10z"/>
<path d="M4305 3529 c-4 -6 -5 -12 -2 -15 2 -3 7 2 10 11 7 17 1 20 -8 4z"/>
<path d="M4370 3510 c0 -5 5 -10 10 -10 6 0 10 5 10 10 0 6 -4 10 -10 10 -5 0
-10 -4 -10 -10z"/>
<path d="M4480 3782 c0 -15 11 -21 27 -15 12 5 12 7 1 14 -17 11 -28 11 -28 1z"/>
<path d="M4750 3814 c0 -8 5 -12 10 -9 6 4 8 11 5 16 -9 14 -15 11 -15 -7z"/>
<path d="M4590 3761 c0 -6 4 -12 8 -15 5 -3 9 1 9 9 0 8 -4 15 -9 15 -4 0 -8
-4 -8 -9z"/>
<path d="M4574 3730 c0 -13 4 -16 10 -10 7 7 7 13 0 20 -6 6 -10 3 -10 -10z"/>
<path d="M5123 3713 c-15 -5 -17 -23 -4 -23 5 0 11 7 15 15 3 8 4 15 3 14 -1
0 -8 -3 -14 -6z"/>
<path d="M5050 3680 c-13 -8 -12 -10 3 -10 9 0 17 5 17 10 0 12 -1 12 -20 0z"/>
<path d="M4420 3569 c0 -5 5 -7 10 -4 6 3 10 8 10 11 0 2 -4 4 -10 4 -5 0 -10
-5 -10 -11z"/>
<path d="M4704 3545 c-10 -8 -14 -15 -8 -15 5 0 19 7 30 15 10 8 14 15 8 15
-5 0 -19 -7 -30 -15z"/>
<path d="M4628 3515 c-11 -11 3 -36 16 -28 6 4 5 -1 -3 -10 -8 -10 -9 -17 -3
-17 16 0 55 54 42 58 -6 2 -17 -1 -24 -7 -10 -9 -15 -9 -18 -1 -2 6 -6 8 -10
5z"/>
<path d="M4333 3395 c-3 -9 -3 -18 -1 -21 3 -3 8 4 11 16 6 23 -1 27 -10 5z"/>
<path d="M4645 3388 c-21 -12 -35 -28 -35 -40 0 -9 69 35 70 45 0 10 -11 8
-35 -5z"/>
<path d="M4649 3353 c-13 -17 -13 -17 6 -3 11 8 22 16 24 17 2 2 0 3 -6 3 -6
0 -17 -8 -24 -17z"/>
<path d="M5146 3114 c-11 -8 -16 -14 -10 -14 13 0 39 18 34 24 -3 2 -14 -2
-24 -10z"/>
<path d="M5187 3109 c6 -23 9 -24 16 -5 3 8 0 17 -7 19 -10 4 -12 -1 -9 -14z"/>
<path d="M5600 3345 c-6 -17 -7 -32 -2 -37 6 -6 12 4 16 23 8 42 0 50 -14 14z"/>
<path d="M5630 3356 c0 -8 -3 -21 -6 -30 -5 -12 0 -16 19 -16 20 0 23 4 20 24
-5 27 -33 44 -33 22z"/>
<path d="M5840 3303 c0 -6 4 -14 8 -17 5 -3 20 -49 33 -103 13 -54 25 -90 27
-81 4 23 -36 172 -54 195 -7 10 -14 13 -14 6z"/>
<path d="M5424 3025 c-3 -8 -4 -20 -2 -27 3 -7 7 -1 10 15 6 29 1 36 -8 12z"/>
<path d="M5714 2759 c-4 -7 -3 -9 4 -5 6 3 15 -2 21 -11 6 -10 11 -13 11 -7 0
20 -27 37 -36 23z"/>
<path d="M5697 2663 c3 -7 6 -13 8 -13 2 0 5 6 8 13 3 8 -1 14 -8 14 -7 0 -11
-6 -8 -14z"/>
<path d="M5826 2527 c3 -10 9 -15 12 -12 3 3 0 11 -7 18 -10 9 -11 8 -5 -6z"/>
<path d="M5663 2501 c-10 -7 -11 -22 -1 -37 10 -16 56 -14 62 2 6 15 -47 45
-61 35z"/>
<path d="M5816 2474 c-8 -20 -8 -24 2 -24 4 0 8 9 9 20 2 24 -3 26 -11 4z"/>
<path d="M5776 2461 c-11 -12 -14 -21 -7 -26 6 -3 11 -12 11 -18 0 -7 -4 -6
-10 3 -5 8 -11 12 -14 9 -3 -2 -1 -11 4 -19 8 -12 12 -12 27 5 18 19 26 65 12
65 -3 0 -14 -9 -23 -19z"/>
<path d="M5483 3378 c-1 -36 21 -37 24 -1 0 16 -2 21 -7 13 -6 -10 -9 -9 -12
1 -3 8 -5 2 -5 -13z"/>
<path d="M5291 3031 c-8 -14 -7 -22 7 -32 16 -13 16 -13 2 5 -14 18 -13 19 4
13 15 -6 17 -5 8 6 -7 8 -9 17 -5 20 3 4 3 7 0 7 -3 0 -11 -9 -16 -19z"/>
<path d="M5210 3029 c0 -5 5 -7 10 -4 6 3 10 8 10 11 0 2 -4 4 -10 4 -5 0 -10
-5 -10 -11z"/>
<path d="M5235 3000 c-3 -5 -1 -10 4 -10 6 0 11 5 11 10 0 6 -2 10 -4 10 -3 0
-8 -4 -11 -10z"/>
<path d="M4826 3164 c-23 -23 -20 -30 4 -9 11 10 20 20 20 22 0 7 -9 2 -24
-13z"/>
<path d="M4990 3145 c0 -8 4 -15 10 -15 5 0 7 7 4 15 -4 8 -8 15 -10 15 -2 0
-4 -7 -4 -15z"/>
<path d="M4341 3214 c0 -11 3 -14 6 -6 3 7 2 16 -1 19 -3 4 -6 -2 -5 -13z"/>
<path d="M4457 3063 c-4 -3 -7 -11 -7 -17 0 -6 5 -5 12 2 6 6 9 14 7 17 -3 3
-9 2 -12 -2z"/>
<path d="M4426 3003 c-6 -14 -5 -15 5 -6 7 7 10 15 7 18 -3 3 -9 -2 -12 -12z"/>
<path d="M4445 2980 c3 -5 8 -10 11 -10 2 0 4 5 4 10 0 6 -5 10 -11 10 -5 0
-7 -4 -4 -10z"/>
<path d="M4540 2120 c0 -5 5 -10 11 -10 5 0 7 5 4 10 -3 6 -8 10 -11 10 -2 0
-4 -4 -4 -10z"/>
<path d="M4405 1799 c-4 -6 -5 -12 -2 -15 2 -3 7 2 10 11 7 17 1 20 -8 4z"/>
<path d="M4450 1761 c0 -6 4 -13 10 -16 6 -3 7 1 4 9 -7 18 -14 21 -14 7z"/>
<path d="M4430 1698 c0 -9 5 -20 11 -23 17 -11 18 -2 3 19 -12 17 -14 17 -14
4z"/>
<path d="M4380 1471 c0 -9 30 -24 36 -18 2 1 -6 8 -16 15 -11 7 -20 8 -20 3z"/>
<path d="M4374 1408 c3 -10 0 -18 -6 -18 -7 0 -6 -5 2 -15 27 -33 36 -9 11 30
-9 15 -11 16 -7 3z"/>
<path d="M4700 1236 c0 -2 8 -10 18 -17 15 -13 16 -12 3 4 -13 16 -21 21 -21
13z"/>
<path d="M4666 1211 c9 -9 45 -11 39 -2 -3 6 -14 9 -25 8 -10 -1 -17 -3 -14
-6z"/>
<path d="M5830 1510 c0 -5 5 -10 11 -10 5 0 7 5 4 10 -3 6 -8 10 -11 10 -2 0
-4 -4 -4 -10z"/>
<path d="M5910 1509 c0 -5 -5 -7 -11 -3 -8 4 -8 0 0 -15 15 -27 19 -27 19 4 0
14 -2 25 -4 25 -2 0 -4 -5 -4 -11z"/>
<path d="M5640 1465 c0 -8 5 -15 10 -15 6 0 10 5 10 11 0 5 5 7 12 3 7 -4 8
-3 4 4 -10 17 -36 15 -36 -3z"/>
<path d="M5798 1403 c7 -3 16 -2 19 1 4 3 -2 6 -13 5 -11 0 -14 -3 -6 -6z"/>
<path d="M5929 1102 c31 -45 78 -72 121 -71 19 1 26 3 15 6 -11 2 -30 6 -43 9
-13 2 -44 24 -70 47 -44 40 -45 41 -23 9z"/>
<path d="M4527 1095 c-5 -10 -1 -14 13 -12 11 2 23 7 27 13 5 5 4 6 -1 2 -5
-4 -15 -3 -21 2 -9 8 -14 6 -18 -5z"/>
<path d="M4366 1092 c-2 -4 -1 -14 3 -21 7 -10 13 -10 30 -2 29 16 26 23 -6
15 -22 -4 -25 -3 -13 5 9 7 10 11 3 11 -6 0 -14 -4 -17 -8z"/>
<path d="M4333 1044 c0 -8 5 -14 10 -14 5 0 4 -7 -3 -15 -8 -10 -9 -15 -2 -15
7 0 9 -8 5 -17 -4 -11 -2 -15 3 -10 13 13 13 75 -1 81 -6 2 -12 -2 -12 -10z"/>
<path d="M4396 825 c7 -47 40 -115 55 -115 8 0 7 5 -1 15 -7 8 -23 43 -37 78
-20 53 -23 56 -17 22z"/>
<path d="M4513 673 c9 -14 47 -24 47 -12 0 5 -4 9 -9 9 -5 0 -17 3 -27 7 -11
4 -15 3 -11 -4z"/>
<path d="M5850 1086 c0 -2 8 -10 18 -17 15 -13 16 -12 3 4 -13 16 -21 21 -21
13z"/>
<path d="M4760 5560 c-11 -8 -6 -9 23 -4 37 6 37 6 28 -19 -7 -17 -6 -28 2
-37 10 -10 7 -12 -11 -7 -31 7 -89 -12 -70 -24 18 -12 65 -11 88 1 16 9 26 4
53 -22 19 -18 39 -42 45 -53 11 -20 11 -20 12 1 0 11 3 24 7 27 9 10 33 -13
33 -32 0 -9 18 -27 39 -40 30 -19 38 -30 35 -46 -3 -15 4 -26 22 -35 17 -10
24 -20 20 -33 -2 -10 -2 -16 1 -13 8 8 35 -22 29 -33 -3 -5 14 -14 38 -21 38
-10 51 -10 88 4 38 14 39 15 8 9 -43 -8 -91 -6 -102 5 -4 4 4 9 19 10 15 1 37
12 50 24 13 12 23 16 23 10 0 -7 5 -12 11 -12 6 0 8 7 5 17 -5 13 0 11 18 -6
14 -14 28 -22 31 -19 3 2 -4 13 -15 23 -11 10 -20 23 -20 28 0 6 9 2 20 -8 11
-10 20 -15 20 -11 0 4 -9 19 -20 33 -15 19 -20 21 -20 9 0 -21 -10 -20 -26 2
-12 16 -15 15 -43 -12 -17 -16 -28 -33 -25 -38 3 -4 -9 -8 -25 -8 -28 0 -31 3
-31 29 0 17 11 42 25 59 25 30 33 48 16 37 -6 -3 -25 4 -43 15 -18 11 -46 20
-61 20 -16 0 -26 4 -23 9 3 5 16 7 29 5 20 -4 20 -4 2 5 -14 6 -25 4 -36 -5
-14 -13 -19 -12 -39 4 -19 16 -21 22 -11 40 6 12 18 22 26 22 8 0 15 4 15 10
0 10 -27 3 -46 -11 -6 -5 -21 -1 -34 8 -12 9 -39 18 -59 20 -52 5 -61 10 -61
33 0 18 6 20 67 20 36 0 64 2 61 5 -11 11 -173 15 -188 5z m156 -114 c10 -8
15 -18 11 -22 -4 -4 -17 2 -29 14 -25 25 -13 30 18 8z m314 -176 c-6 -11 -15
-20 -20 -20 -14 0 -12 6 6 24 21 22 27 20 14 -4z"/>
<path d="M4716 5534 c-9 -24 -2 -26 12 -4 7 11 8 20 3 20 -5 0 -12 -7 -15 -16z"/>
<path d="M5040 5509 c50 -27 52 -29 20 -23 -51 9 -35 -1 40 -25 107 -36 120
-43 136 -73 15 -29 15 -30 -5 -23 -11 3 -29 2 -38 -4 -14 -8 -8 -10 29 -11 56
0 101 -33 130 -95 19 -40 20 -35 5 34 -2 7 -13 19 -24 25 -35 20 -69 50 -88
80 -12 18 -44 40 -81 57 -35 16 -66 34 -69 40 -7 10 -90 50 -103 49 -4 -1 18
-14 48 -31z"/>
<path d="M4987 5424 c6 -16 19 -18 27 -5 3 5 -3 11 -13 14 -14 3 -18 1 -14 -9z"/>
<path d="M5128 5389 c24 -11 46 -18 49 -16 7 7 -26 23 -62 30 -24 5 -22 2 13
-14z"/>
<path d="M5278 5373 c6 -2 18 -2 25 0 6 3 1 5 -13 5 -14 0 -19 -2 -12 -5z"/>
<path d="M4906 5363 c-4 -5 -22 -13 -39 -20 -25 -9 -27 -12 -11 -12 18 -1 81
38 63 39 -3 0 -9 -3 -13 -7z"/>
<path d="M4760 5325 c-8 -9 -8 -15 -2 -15 6 0 12 5 14 12 3 9 11 9 34 1 58
-22 78 -23 104 -2 21 17 22 19 3 10 -27 -14 -80 -14 -88 -1 -9 15 -51 12 -65
-5z"/>
<path d="M5012 5311 c7 -11 16 -17 20 -15 5 3 2 12 -6 20 -21 20 -28 17 -14
-5z"/>
<path d="M4750 5288 c0 -30 76 -61 132 -55 42 5 55 2 95 -23 50 -32 63 -36 63
-20 0 6 -6 10 -12 10 -7 0 -39 16 -71 36 -32 20 -61 33 -64 30 -4 -3 -1 -6 6
-6 7 0 9 -4 6 -10 -16 -26 -123 1 -144 37 -9 16 -10 16 -11 1z"/>
<path d="M5231 5159 c-13 -5 -22 -12 -19 -14 6 -6 58 12 58 20 0 7 -11 5 -39
-6z"/>
<path d="M4910 4931 c0 -5 5 -13 10 -16 6 -3 10 -2 10 4 0 5 -4 13 -10 16 -5
3 -10 2 -10 -4z"/>
<path d="M5470 4689 c0 -5 5 -7 10 -4 6 3 10 8 10 11 0 2 -4 4 -10 4 -5 0 -10
-5 -10 -11z"/>
<path d="M5156 4381 c10 -39 35 -94 40 -88 3 2 -7 29 -21 58 -13 30 -22 43
-19 30z"/>
<path d="M5695 4389 c-4 -6 -7 -27 -7 -47 0 -47 46 -92 95 -92 55 0 64 17 12
23 -61 6 -99 45 -93 94 4 35 3 39 -7 22z"/>
<path d="M5341 3920 c0 -8 4 -24 9 -35 l9 -20 0 20 c0 11 -4 27 -9 35 -9 13
-10 13 -9 0z"/>
<path d="M4930 3790 c-8 -5 -10 -10 -5 -10 6 0 17 5 25 10 8 5 11 10 5 10 -5
0 -17 -5 -25 -10z"/>
<path d="M5080 3780 c-8 -5 -10 -10 -5 -10 6 0 17 5 25 10 8 5 11 10 5 10 -5
0 -17 -5 -25 -10z"/>
<path d="M2940 3724 c-26 -68 68 -127 116 -72 15 18 16 20 2 9 -20 -15 -93 -7
-83 10 4 5 -1 12 -9 15 -11 4 -14 15 -11 35 6 36 -2 38 -15 3z"/>
<path d="M4690 3630 c-8 -5 -10 -10 -5 -10 6 0 17 5 25 10 8 5 11 10 5 10 -5
0 -17 -5 -25 -10z"/>
<path d="M3515 3095 c-78 -32 -154 -111 -185 -192 -29 -77 -25 -196 9 -262 36
-70 104 -135 172 -166 56 -25 70 -27 148 -23 101 5 148 25 222 95 53 50 62 67
27 54 -85 -32 -148 -41 -148 -20 0 6 -8 8 -19 4 -11 -3 -35 1 -54 9 -32 13
-36 13 -56 -7 -12 -12 -21 -16 -21 -9 0 7 4 12 9 12 14 0 23 32 12 43 -7 7
-16 5 -27 -4 -16 -12 -17 -12 -12 2 7 19 -9 39 -32 39 -9 0 -11 -3 -4 -8 8 -5
5 -13 -7 -26 -11 -11 -19 -14 -19 -8 0 6 5 14 10 17 7 4 3 17 -8 33 -11 15
-17 33 -15 40 3 6 0 12 -6 12 -6 0 -11 9 -11 21 0 11 -4 17 -10 14 -5 -3 -10
1 -10 9 0 8 -11 23 -25 34 -13 11 -21 22 -18 26 3 3 1 6 -5 6 -6 0 -9 7 -6 15
4 11 2 13 -9 9 -8 -3 -18 0 -23 7 -4 7 -2 15 4 17 7 2 9 9 5 15 -4 7 0 8 12 3
15 -6 16 -4 5 9 -8 9 -14 31 -13 48 0 26 3 31 19 29 15 -2 16 -1 4 7 -12 8
-11 14 9 35 36 38 108 68 186 76 l70 7 -60 1 c-43 1 -77 -6 -120 -23z m-130
-275 c-3 -5 1 -10 9 -10 20 0 21 -16 2 -23 -21 -8 -39 16 -24 31 15 15 21 16
13 2z m85 -127 c0 -14 -46 -18 -54 -5 -6 11 6 28 24 34 16 5 30 -8 30 -29z
m45 -23 c-3 -5 -11 -10 -16 -10 -6 0 -7 5 -4 10 3 6 11 10 16 10 6 0 7 -4 4
-10z m115 -50 c0 -5 -4 -10 -10 -10 -5 0 -10 5 -10 10 0 6 5 10 10 10 6 0 10
-4 10 -10z m-215 -10 c3 -5 1 -10 -4 -10 -6 0 -11 5 -11 10 0 6 2 10 4 10 3 0
8 -4 11 -10z m145 -40 c0 -11 -6 -20 -14 -20 -18 0 -29 16 -21 30 11 18 35 11
35 -10z m180 -30 c0 -5 -4 -10 -10 -10 -5 0 -10 5 -10 10 0 6 5 10 10 10 6 0
10 -4 10 -10z m-150 -40 c0 -11 -6 -20 -14 -20 -18 0 -29 16 -21 30 11 18 35
11 35 -10z m130 -10 c0 -5 -5 -10 -11 -10 -5 0 -7 5 -4 10 3 6 8 10 11 10 2 0
4 -4 4 -10z"/>
<path d="M3486 2985 c4 -8 8 -15 10 -15 2 0 4 7 4 15 0 8 -4 15 -10 15 -5 0
-7 -7 -4 -15z"/>
<path d="M4880 2975 c14 -10 55 -40 93 -67 37 -26 67 -44 67 -39 0 10 -139
108 -167 117 -11 4 -9 0 7 -11z"/>
<path d="M3515 2851 c11 -4 23 -19 27 -32 6 -21 7 -21 5 6 -2 24 -7 30 -27 32
-22 2 -22 2 -5 -6z"/>
<path d="M3610 2706 c0 -2 9 -6 20 -9 11 -3 18 -1 14 4 -5 9 -34 13 -34 5z"/>
<path d="M3775 2700 c3 -5 11 -10 16 -10 6 0 7 5 4 10 -3 6 -11 10 -16 10 -6
0 -7 -4 -4 -10z"/>
<path d="M3670 2620 c0 -6 7 -13 15 -17 24 -9 27 1 5 15 -13 8 -20 8 -20 2z"/>
<path d="M4461 2574 c0 -11 3 -14 6 -6 3 7 2 16 -1 19 -3 4 -6 -2 -5 -13z"/>
<path d="M5006 2571 c21 -13 36 -33 44 -58 7 -21 17 -42 23 -48 7 -7 8 -4 2
10 -4 11 -12 34 -17 50 -15 41 -37 65 -62 65 -18 0 -16 -3 10 -19z"/>
<path d="M4370 2496 c0 -2 7 -7 16 -10 8 -3 12 -2 9 4 -6 10 -25 14 -25 6z"/>
<path d="M4435 2480 c-3 -5 -1 -10 4 -10 6 0 11 5 11 10 0 6 -2 10 -4 10 -3 0
-8 -4 -11 -10z"/>
<path d="M4570 2430 c8 -5 20 -10 25 -10 6 0 3 5 -5 10 -8 5 -19 10 -25 10 -5
0 -3 -5 5 -10z"/>
<path d="M4530 2395 c-7 -8 -8 -15 -2 -15 5 0 15 7 22 15 7 8 8 15 2 15 -5 0
-15 -7 -22 -15z"/>
<path d="M4549 2373 c-13 -16 -12 -17 4 -4 16 13 21 21 13 21 -2 0 -10 -8 -17
-17z"/>
<path d="M4570 2355 c-7 -9 -8 -15 -2 -15 5 0 12 7 16 15 3 8 4 15 2 15 -2 0
-9 -7 -16 -15z"/>
<path d="M4593 2335 c0 -8 4 -12 9 -9 5 3 6 10 3 15 -9 13 -12 11 -12 -6z"/>
<path d="M4825 2280 c-18 -8 -17 -9 8 -9 15 -1 27 4 27 9 0 12 -8 12 -35 0z"/>
<path d="M4940 2171 c0 -5 7 -11 14 -14 10 -4 13 -1 9 9 -6 15 -23 19 -23 5z"/>
<path d="M5730 2110 c0 -16 47 -30 98 -29 l47 1 -51 8 c-28 4 -60 13 -72 19
-15 8 -22 8 -22 1z"/>
<path d="M3658 1923 c-42 -49 -49 -107 -20 -162 21 -39 73 -71 115 -71 50 0
105 39 121 85 6 19 5 19 -8 3 -20 -27 -110 -24 -153 5 -18 12 -33 27 -33 34 0
7 -7 10 -15 7 -8 -4 -15 -1 -15 5 0 6 5 11 12 11 7 0 5 7 -5 18 -15 16 -15 20
3 50 22 36 21 41 -2 15z m92 -203 c0 -5 -2 -10 -4 -10 -3 0 -8 5 -11 10 -3 6
-1 10 4 10 6 0 11 -4 11 -10z"/>
<path d="M5740 1690 c0 -7 -7 -9 -16 -6 -14 5 -15 4 -4 -9 7 -9 16 -12 19 -8
3 4 10 11 15 14 4 4 3 10 -3 13 -6 4 -11 2 -11 -4z"/>
<path d="M5695 1660 c-3 -5 -3 -10 2 -10 4 0 2 -4 -5 -9 -11 -6 -10 -10 4 -15
10 -4 15 -4 11 0 -4 4 -2 13 4 20 6 8 6 14 0 18 -5 4 -12 2 -16 -4z"/>
<path d="M5764 1652 c0 -9 12 -23 25 -30 33 -17 33 -12 1 20 -21 21 -27 23
-26 10z"/>
<path d="M5758 1568 c5 -5 16 -8 23 -6 8 3 3 7 -10 11 -17 4 -21 3 -13 -5z"/>
<path d="M5703 1200 c8 -14 23 -26 33 -28 18 -3 18 -2 -1 9 -11 7 -26 20 -34
28 -9 11 -8 8 2 -9z"/>
<path d="M5761 1149 c-1 -18 35 -59 52 -59 6 0 1 7 -11 16 -13 9 -27 26 -32
38 -6 14 -9 16 -9 5z"/>
<path d="M6110 990 c-14 -11 -20 -20 -14 -20 7 0 22 9 35 20 31 25 12 26 -21
0z"/>
<path d="M6006 958 c7 -11 35 -10 53 1 10 6 3 9 -22 8 -20 0 -34 -5 -31 -9z"/>
<path d="M4316 804 c2 -42 8 -62 25 -80 12 -13 25 -22 27 -19 3 3 -4 14 -16
25 -16 15 -22 33 -22 63 0 23 -4 48 -8 55 -5 6 -7 -13 -6 -44z"/>
<path d="M4365 660 c3 -5 8 -10 11 -10 2 0 4 5 4 10 0 6 -5 10 -11 10 -5 0 -7
-4 -4 -10z"/>
</g>
</svg>
