<?xml version="1.0" standalone="no"?>
<!DOCTYPE svg PUBLIC "-//W3C//DTD SVG 20010904//EN"
 "http://www.w3.org/TR/2001/REC-SVG-20010904/DTD/svg10.dtd">
<svg version="1.0" xmlns="http://www.w3.org/2000/svg"
 width="260.000000pt" height="273.000000pt" viewBox="0 0 260.000000 273.000000"
 preserveAspectRatio="xMidYMid meet">

<g transform="translate(0.000000,273.000000) scale(0.100000,-0.100000)"
fill="#000000" stroke="none">
<path d="M502 1660 c0 -14 2 -19 5 -12 2 6 2 18 0 25 -3 6 -5 1 -5 -13z"/>
<path d="M2425 1629 c-4 -6 -5 -12 -2 -15 2 -3 7 2 10 11 7 17 1 20 -8 4z"/>
<path d="M511 1604 c0 -11 3 -14 6 -6 3 7 2 16 -1 19 -3 4 -6 -2 -5 -13z"/>
<path d="M2353 1559 c-18 -12 -33 -25 -33 -29 0 -14 62 15 72 34 12 22 0 20
-39 -5z"/>
<path d="M200 1340 c0 -15 28 -102 47 -147 7 -17 13 -36 13 -42 0 -6 5 -11 10
-11 17 0 11 45 -11 97 -12 26 -24 61 -28 77 -6 29 -31 49 -31 26z"/>
<path d="M208 834 c9 -17 8 -25 -3 -34 -8 -7 -15 -20 -15 -30 0 -27 37 -68 69
-75 16 -3 40 -15 52 -26 16 -14 31 -18 50 -14 18 4 47 -3 90 -24 35 -16 81
-34 101 -39 20 -6 54 -23 75 -40 35 -27 75 -44 113 -47 17 -1 49 -13 70 -25
68 -40 103 -60 109 -60 10 0 -53 49 -64 50 -6 0 -19 11 -29 25 -10 13 -23 22
-28 19 -6 -4 -13 -1 -17 5 -4 6 -18 14 -31 16 -42 8 -84 33 -127 74 -23 23
-51 41 -61 41 -10 0 -32 10 -49 23 -36 26 -116 63 -157 72 -16 3 -30 14 -33
25 -3 11 -12 20 -19 20 -17 0 -51 18 -83 45 l-24 20 11 -21z"/>
<path d="M2425 566 c-22 -14 -54 -32 -71 -41 -38 -20 -86 -69 -111 -114 -15
-27 -29 -37 -78 -52 -33 -10 -70 -24 -82 -30 -13 -7 -40 -9 -64 -6 -25 3 -52
1 -63 -6 -12 -6 -28 -11 -36 -12 -8 0 -17 -11 -20 -25 -4 -19 -13 -25 -33 -26
-15 -1 -27 2 -27 5 0 11 -152 -14 -179 -29 -15 -7 -71 -14 -140 -16 -205 -6
-315 -13 -361 -22 -35 -6 -54 -4 -89 10 -66 28 -75 15 -10 -15 47 -21 63 -24
95 -17 32 7 95 6 164 -2 8 -1 40 1 70 6 31 4 91 3 138 -3 77 -10 87 -9 124 10
32 16 54 20 112 17 39 -2 79 -8 89 -12 14 -7 17 -3 17 23 0 24 4 31 19 31 10
0 31 6 47 14 19 10 33 12 45 5 26 -13 66 -11 139 10 56 15 67 23 85 55 34 60
74 105 113 126 115 64 161 99 162 128 0 17 -9 15 -55 -12z"/>
</g>
</svg>
